<svg width="1407" height="1528" viewBox="0 0 1407 1528" fill="none" xmlns="http://www.w3.org/2000/svg">
<g clip-path="url(#clip0_656_281)">
<g filter="url(#filter0_ii_656_281)">
<path fill-rule="evenodd" clip-rule="evenodd" d="M16.9281 52.7125C24.0799 44.4099 37.1072 34.7228 51.7236 32.0338C64.4786 29.6873 81.4728 32.0083 100.843 53.0046C112.664 66.6122 133.952 83.0828 160.932 88.0461C189.88 93.3719 221.913 84.7661 250.793 53.3604C250.99 53.1491 251.183 52.9331 251.373 52.7125C258.525 44.4099 271.552 34.7228 286.169 32.0338C298.924 29.6873 315.918 32.0083 335.288 53.0046C347.109 66.6122 368.398 83.0828 395.377 88.0461C424.365 93.3792 456.446 84.7425 485.357 53.231C485.548 53.0228 485.735 52.8118 485.916 52.5984C493.089 44.3214 506.064 34.7105 520.613 32.0338C533.368 29.6873 550.362 32.0083 569.732 53.0046C581.554 66.6122 602.842 83.0828 629.821 88.0461C658.768 93.3716 690.799 84.7672 719.678 53.3657C719.876 53.1527 720.071 52.9349 720.263 52.7125C727.415 44.4099 740.442 34.7228 755.059 32.0338C767.814 29.6873 784.808 32.0083 804.178 53.0046C815.999 66.6122 837.287 83.0828 864.267 88.0461C893.195 93.3681 925.202 84.7783 954.067 53.4271C954.285 53.1946 954.499 52.9564 954.709 52.7125C961.861 44.4099 974.888 34.7228 989.505 32.0338C1002.26 29.6873 1019.25 32.0083 1038.62 53.0046C1050.45 66.6122 1071.73 83.0828 1098.71 88.0461C1127.7 93.3792 1159.78 84.7425 1188.69 53.231C1188.88 53.0235 1189.07 52.8132 1189.25 52.6005C1196.42 44.323 1209.4 34.7107 1223.95 32.0338C1236.7 29.6873 1253.7 32.0083 1273.07 53.0046C1284.89 66.6122 1306.18 83.0828 1333.16 88.0461C1362.15 93.3792 1394.23 84.7425 1423.14 53.231C1431.41 44.218 1430.8 30.208 1421.79 21.9387C1412.78 13.6695 1398.77 14.2723 1390.5 23.2852C1371.04 44.4912 1353.97 46.8373 1341.17 44.4824C1326.56 41.7934 1313.53 32.1063 1306.38 23.8037C1306.23 23.6285 1306.07 23.4556 1305.92 23.2852C1277 -8.2263 1244.92 -16.863 1215.93 -11.5299C1188.95 -6.56503 1167.65 9.91417 1155.83 23.5242C1136.47 44.5088 1119.48 46.8285 1106.73 44.4824C1092.11 41.7934 1079.08 32.1063 1071.93 23.8037C1071.78 23.6285 1071.63 23.4556 1071.47 23.2852C1042.56 -8.2263 1010.48 -16.863 981.49 -11.5299C954.529 -6.56975 933.25 9.8829 921.424 23.4854C902.044 44.5059 885.041 46.8299 872.281 44.4824C857.665 41.7934 844.637 32.1063 837.486 23.8037C837.335 23.6285 837.181 23.4556 837.025 23.2852C808.113 -8.2263 776.033 -16.863 747.044 -11.5299C720.071 -6.56764 698.786 9.89683 686.963 23.5027C667.59 44.5072 650.593 46.8293 637.836 44.4824C623.219 41.7934 610.192 32.1063 603.04 23.8037C602.889 23.6285 602.736 23.4556 602.579 23.2852C573.668 -8.2263 541.587 -16.863 512.599 -11.5299C485.613 -6.5653 464.32 9.91235 452.501 23.5219C433.135 44.5086 416.144 46.8285 403.391 44.4824C388.775 41.7934 375.748 32.1063 368.596 23.8037C368.445 23.6285 368.291 23.4556 368.135 23.2852C339.223 -8.2263 307.143 -16.863 278.154 -11.5299C251.18 -6.56747 229.895 9.89799 218.072 23.5041C198.699 44.5073 181.703 46.8292 168.946 44.4824C154.33 41.7934 141.302 32.1063 134.151 23.8037C134 23.6285 133.846 23.4556 133.69 23.2852C104.778 -8.2263 72.6975 -16.863 43.7092 -11.5299C16.5366 -6.53099 -4.86338 10.1407 -16.6325 23.8037C-24.6155 33.0713 -23.5741 47.0555 -14.3066 55.0384C-5.03902 63.0214 8.94523 61.98 16.9281 52.7125Z" fill="#E2F163"/>
</g>
<g filter="url(#filter1_ii_656_281)">
<path fill-rule="evenodd" clip-rule="evenodd" d="M16.9281 140.712C24.0799 132.41 37.1072 122.723 51.7236 120.034C64.4786 117.687 81.4728 120.008 100.843 141.005C112.664 154.612 133.952 171.083 160.932 176.046C189.88 181.372 221.913 172.766 250.793 141.36C250.99 141.149 251.183 140.933 251.373 140.712C258.525 132.41 271.552 122.723 286.169 120.034C298.924 117.687 315.918 120.008 335.288 141.005C347.109 154.612 368.398 171.083 395.377 176.046C424.365 181.379 456.446 172.742 485.357 141.231C485.548 141.023 485.735 140.812 485.916 140.598C493.089 132.321 506.064 122.711 520.613 120.034C533.368 117.687 550.362 120.008 569.732 141.005C581.554 154.612 602.842 171.083 629.821 176.046C658.768 181.372 690.799 172.767 719.678 141.366C719.876 141.153 720.071 140.935 720.263 140.712C727.415 132.41 740.442 122.723 755.059 120.034C767.814 117.687 784.808 120.008 804.178 141.005C815.999 154.612 837.287 171.083 864.267 176.046C893.195 181.368 925.202 172.778 954.067 141.427C954.285 141.195 954.499 140.956 954.709 140.712C961.861 132.41 974.888 122.723 989.505 120.034C1002.26 117.687 1019.25 120.008 1038.62 141.005C1050.45 154.612 1071.73 171.083 1098.71 176.046C1127.7 181.379 1159.78 172.742 1188.69 141.231C1188.88 141.023 1189.07 140.813 1189.25 140.6C1196.42 132.323 1209.4 122.711 1223.95 120.034C1236.7 117.687 1253.7 120.008 1273.07 141.005C1284.89 154.612 1306.18 171.083 1333.16 176.046C1362.15 181.379 1394.23 172.742 1423.14 141.231C1431.41 132.218 1430.8 118.208 1421.79 109.939C1412.78 101.669 1398.77 102.272 1390.5 111.285C1371.04 132.491 1353.97 134.837 1341.17 132.482C1326.56 129.793 1313.53 120.106 1306.38 111.804C1306.23 111.629 1306.07 111.456 1305.92 111.285C1277 79.7737 1244.92 71.137 1215.93 76.4701C1188.95 81.435 1167.65 97.9142 1155.83 111.524C1136.47 132.509 1119.48 134.828 1106.73 132.482C1092.11 129.793 1079.08 120.106 1071.93 111.804C1071.78 111.629 1071.63 111.456 1071.47 111.285C1042.56 79.7737 1010.48 71.137 981.49 76.4701C954.529 81.4303 933.25 97.8829 921.424 111.485C902.044 132.506 885.041 134.83 872.281 132.482C857.665 129.793 844.637 120.106 837.486 111.804C837.335 111.629 837.181 111.456 837.025 111.285C808.113 79.7737 776.033 71.137 747.044 76.4701C720.071 81.4324 698.786 97.8968 686.963 111.503C667.59 132.507 650.593 134.829 637.836 132.482C623.219 129.793 610.192 120.106 603.04 111.804C602.889 111.629 602.736 111.456 602.579 111.285C573.668 79.7737 541.587 71.137 512.599 76.4701C485.613 81.4347 464.32 97.9123 452.501 111.522C433.135 132.509 416.144 134.829 403.391 132.482C388.775 129.793 375.748 120.106 368.596 111.804C368.445 111.629 368.291 111.456 368.135 111.285C339.223 79.7737 307.143 71.137 278.154 76.4701C251.18 81.4325 229.895 97.898 218.072 111.504C198.699 132.507 181.703 134.829 168.946 132.482C154.33 129.793 141.302 120.106 134.151 111.804C134 111.629 133.846 111.456 133.69 111.285C104.778 79.7737 72.6975 71.137 43.7092 76.4701C16.5366 81.469 -4.86338 98.1407 -16.6325 111.804C-24.6155 121.071 -23.5741 135.056 -14.3066 143.038C-5.03902 151.021 8.94523 149.98 16.9281 140.712Z" fill="#E2F163"/>
</g>
<g filter="url(#filter2_ii_656_281)">
<path fill-rule="evenodd" clip-rule="evenodd" d="M16.9281 228.712C24.0799 220.41 37.1072 210.723 51.7236 208.034C64.4786 205.687 81.4728 208.008 100.843 229.005C112.664 242.612 133.952 259.083 160.932 264.046C189.88 269.372 221.913 260.766 250.793 229.36C250.99 229.149 251.183 228.933 251.373 228.712C258.525 220.41 271.552 210.723 286.169 208.034C298.924 205.687 315.918 208.008 335.288 229.005C347.109 242.612 368.398 259.083 395.377 264.046C424.365 269.379 456.446 260.742 485.357 229.231C485.548 229.023 485.735 228.812 485.916 228.598C493.089 220.321 506.064 210.711 520.613 208.034C533.368 205.687 550.362 208.008 569.732 229.005C581.554 242.612 602.842 259.083 629.821 264.046C658.768 269.372 690.799 260.767 719.678 229.366C719.876 229.153 720.071 228.935 720.263 228.712C727.415 220.41 740.442 210.723 755.059 208.034C767.814 205.687 784.808 208.008 804.178 229.005C815.999 242.612 837.287 259.083 864.267 264.046C893.195 269.368 925.202 260.778 954.067 229.427C954.285 229.195 954.499 228.956 954.709 228.712C961.861 220.41 974.888 210.723 989.505 208.034C1002.26 205.687 1019.25 208.008 1038.62 229.005C1050.45 242.612 1071.73 259.083 1098.71 264.046C1127.7 269.379 1159.78 260.742 1188.69 229.231C1188.88 229.023 1189.07 228.813 1189.25 228.6C1196.42 220.323 1209.4 210.711 1223.95 208.034C1236.7 205.687 1253.7 208.008 1273.07 229.005C1284.89 242.612 1306.18 259.083 1333.16 264.046C1362.15 269.379 1394.23 260.742 1423.14 229.231C1431.41 220.218 1430.8 206.208 1421.79 197.939C1412.78 189.669 1398.77 190.272 1390.5 199.285C1371.04 220.491 1353.97 222.837 1341.17 220.482C1326.56 217.793 1313.53 208.106 1306.38 199.804C1306.23 199.629 1306.07 199.456 1305.92 199.285C1277 167.774 1244.92 159.137 1215.93 164.47C1188.95 169.435 1167.65 185.914 1155.83 199.524C1136.47 220.509 1119.48 222.828 1106.73 220.482C1092.11 217.793 1079.08 208.106 1071.93 199.804C1071.78 199.629 1071.63 199.456 1071.47 199.285C1042.56 167.774 1010.48 159.137 981.49 164.47C954.529 169.43 933.25 185.883 921.424 199.485C902.044 220.506 885.041 222.83 872.281 220.482C857.665 217.793 844.637 208.106 837.486 199.804C837.335 199.629 837.181 199.456 837.025 199.285C808.113 167.774 776.033 159.137 747.044 164.47C720.071 169.432 698.786 185.897 686.963 199.503C667.59 220.507 650.593 222.829 637.836 220.482C623.219 217.793 610.192 208.106 603.04 199.804C602.889 199.629 602.736 199.456 602.579 199.285C573.668 167.774 541.587 159.137 512.599 164.47C485.613 169.435 464.32 185.912 452.501 199.522C433.135 220.509 416.144 222.829 403.391 220.482C388.775 217.793 375.748 208.106 368.596 199.804C368.445 199.629 368.291 199.456 368.135 199.285C339.223 167.774 307.143 159.137 278.154 164.47C251.18 169.433 229.895 185.898 218.072 199.504C198.699 220.507 181.703 222.829 168.946 220.482C154.33 217.793 141.302 208.106 134.151 199.804C134 199.629 133.846 199.456 133.69 199.285C104.778 167.774 72.6975 159.137 43.7092 164.47C16.5366 169.469 -4.86338 186.141 -16.6325 199.804C-24.6155 209.071 -23.5741 223.056 -14.3066 231.038C-5.03902 239.021 8.94523 237.98 16.9281 228.712Z" fill="#E2F163"/>
</g>
<g filter="url(#filter3_ii_656_281)">
<path fill-rule="evenodd" clip-rule="evenodd" d="M16.9281 316.712C24.0799 308.41 37.1072 298.723 51.7236 296.034C64.4786 293.687 81.4728 296.008 100.843 317.005C112.664 330.612 133.952 347.083 160.932 352.046C189.88 357.372 221.913 348.766 250.793 317.36C250.99 317.149 251.183 316.933 251.373 316.712C258.525 308.41 271.552 298.723 286.169 296.034C298.924 293.687 315.918 296.008 335.288 317.005C347.109 330.612 368.398 347.083 395.377 352.046C424.365 357.379 456.446 348.742 485.357 317.231C485.548 317.023 485.735 316.812 485.916 316.598C493.089 308.321 506.064 298.711 520.613 296.034C533.368 293.687 550.362 296.008 569.732 317.005C581.554 330.612 602.842 347.083 629.821 352.046C658.768 357.372 690.799 348.767 719.678 317.366C719.876 317.153 720.071 316.935 720.263 316.712C727.415 308.41 740.442 298.723 755.059 296.034C767.814 293.687 784.808 296.008 804.178 317.005C815.999 330.612 837.287 347.083 864.267 352.046C893.195 357.368 925.202 348.778 954.067 317.427C954.285 317.195 954.499 316.956 954.709 316.712C961.861 308.41 974.888 298.723 989.505 296.034C1002.26 293.687 1019.25 296.008 1038.62 317.005C1050.45 330.612 1071.73 347.083 1098.71 352.046C1127.7 357.379 1159.78 348.742 1188.69 317.231C1188.88 317.023 1189.07 316.813 1189.25 316.6C1196.42 308.323 1209.4 298.711 1223.95 296.034C1236.7 293.687 1253.7 296.008 1273.07 317.005C1284.89 330.612 1306.18 347.083 1333.16 352.046C1362.15 357.379 1394.23 348.742 1423.14 317.231C1431.41 308.218 1430.8 294.208 1421.79 285.939C1412.78 277.669 1398.77 278.272 1390.5 287.285C1371.04 308.491 1353.97 310.837 1341.17 308.482C1326.56 305.793 1313.53 296.106 1306.38 287.804C1306.23 287.629 1306.07 287.456 1305.92 287.285C1277 255.774 1244.92 247.137 1215.93 252.47C1188.95 257.435 1167.65 273.914 1155.83 287.524C1136.47 308.509 1119.48 310.828 1106.73 308.482C1092.11 305.793 1079.08 296.106 1071.93 287.804C1071.78 287.629 1071.63 287.456 1071.47 287.285C1042.56 255.774 1010.48 247.137 981.49 252.47C954.529 257.43 933.25 273.883 921.424 287.485C902.044 308.506 885.041 310.83 872.281 308.482C857.665 305.793 844.637 296.106 837.486 287.804C837.335 287.629 837.181 287.456 837.025 287.285C808.113 255.774 776.033 247.137 747.044 252.47C720.071 257.432 698.786 273.897 686.963 287.503C667.59 308.507 650.593 310.829 637.836 308.482C623.219 305.793 610.192 296.106 603.04 287.804C602.889 287.629 602.736 287.456 602.579 287.285C573.668 255.774 541.587 247.137 512.599 252.47C485.613 257.435 464.32 273.912 452.501 287.522C433.135 308.509 416.144 310.829 403.391 308.482C388.775 305.793 375.748 296.106 368.596 287.804C368.445 287.629 368.291 287.456 368.135 287.285C339.223 255.774 307.143 247.137 278.154 252.47C251.18 257.433 229.895 273.898 218.072 287.504C198.699 308.507 181.703 310.829 168.946 308.482C154.33 305.793 141.302 296.106 134.151 287.804C134 287.629 133.846 287.456 133.69 287.285C104.778 255.774 72.6975 247.137 43.7092 252.47C16.5366 257.469 -4.86338 274.141 -16.6325 287.804C-24.6155 297.071 -23.5741 311.056 -14.3066 319.038C-5.03902 327.021 8.94523 325.98 16.9281 316.712Z" fill="#E2F163"/>
</g>
<g filter="url(#filter4_ii_656_281)">
<path fill-rule="evenodd" clip-rule="evenodd" d="M16.9281 404.712C24.0799 396.41 37.1072 386.723 51.7236 384.034C64.4786 381.687 81.4728 384.008 100.843 405.005C112.664 418.612 133.952 435.083 160.932 440.046C189.88 445.372 221.913 436.766 250.793 405.36C250.99 405.149 251.183 404.933 251.373 404.712C258.525 396.41 271.552 386.723 286.169 384.034C298.924 381.687 315.918 384.008 335.288 405.005C347.109 418.612 368.398 435.083 395.377 440.046C424.365 445.379 456.446 436.742 485.357 405.231C485.548 405.023 485.735 404.812 485.916 404.598C493.089 396.321 506.064 386.711 520.613 384.034C533.368 381.687 550.362 384.008 569.732 405.005C581.554 418.612 602.842 435.083 629.821 440.046C658.768 445.372 690.799 436.767 719.678 405.366C719.876 405.153 720.071 404.935 720.263 404.712C727.415 396.41 740.442 386.723 755.059 384.034C767.814 381.687 784.808 384.008 804.178 405.005C815.999 418.612 837.287 435.083 864.267 440.046C893.195 445.368 925.202 436.778 954.067 405.427C954.285 405.195 954.499 404.956 954.709 404.712C961.861 396.41 974.888 386.723 989.505 384.034C1002.26 381.687 1019.25 384.008 1038.62 405.005C1050.45 418.612 1071.73 435.083 1098.71 440.046C1127.7 445.379 1159.78 436.742 1188.69 405.231C1188.88 405.023 1189.07 404.813 1189.25 404.6C1196.42 396.323 1209.4 386.711 1223.95 384.034C1236.7 381.687 1253.7 384.008 1273.07 405.005C1284.89 418.612 1306.18 435.083 1333.16 440.046C1362.15 445.379 1394.23 436.742 1423.14 405.231C1431.41 396.218 1430.8 382.208 1421.79 373.939C1412.78 365.669 1398.77 366.272 1390.5 375.285C1371.04 396.491 1353.97 398.837 1341.17 396.482C1326.56 393.793 1313.53 384.106 1306.38 375.804C1306.23 375.629 1306.07 375.456 1305.92 375.285C1277 343.774 1244.92 335.137 1215.93 340.47C1188.95 345.435 1167.65 361.914 1155.83 375.524C1136.47 396.509 1119.48 398.828 1106.73 396.482C1092.11 393.793 1079.08 384.106 1071.93 375.804C1071.78 375.629 1071.63 375.456 1071.47 375.285C1042.56 343.774 1010.48 335.137 981.49 340.47C954.529 345.43 933.25 361.883 921.424 375.485C902.044 396.506 885.041 398.83 872.281 396.482C857.665 393.793 844.637 384.106 837.486 375.804C837.335 375.629 837.181 375.456 837.025 375.285C808.113 343.774 776.033 335.137 747.044 340.47C720.071 345.432 698.786 361.897 686.963 375.503C667.59 396.507 650.593 398.829 637.836 396.482C623.219 393.793 610.192 384.106 603.04 375.804C602.889 375.629 602.736 375.456 602.579 375.285C573.668 343.774 541.587 335.137 512.599 340.47C485.613 345.435 464.32 361.912 452.501 375.522C433.135 396.509 416.144 398.829 403.391 396.482C388.775 393.793 375.748 384.106 368.596 375.804C368.445 375.629 368.291 375.456 368.135 375.285C339.223 343.774 307.143 335.137 278.154 340.47C251.18 345.433 229.895 361.898 218.072 375.504C198.699 396.507 181.703 398.829 168.946 396.482C154.33 393.793 141.302 384.106 134.151 375.804C134 375.629 133.846 375.456 133.69 375.285C104.778 343.774 72.6975 335.137 43.7092 340.47C16.5366 345.469 -4.86338 362.141 -16.6325 375.804C-24.6155 385.071 -23.5741 399.056 -14.3066 407.038C-5.03902 415.021 8.94523 413.98 16.9281 404.712Z" fill="#E2F163"/>
</g>
<g filter="url(#filter5_ii_656_281)">
<path fill-rule="evenodd" clip-rule="evenodd" d="M16.9281 492.712C24.0799 484.41 37.1072 474.723 51.7236 472.034C64.4786 469.687 81.4728 472.008 100.843 493.005C112.664 506.612 133.952 523.083 160.932 528.046C189.88 533.372 221.913 524.766 250.793 493.36C250.99 493.149 251.183 492.933 251.373 492.712C258.525 484.41 271.552 474.723 286.169 472.034C298.924 469.687 315.918 472.008 335.288 493.005C347.109 506.612 368.398 523.083 395.377 528.046C424.365 533.379 456.446 524.742 485.357 493.231C485.548 493.023 485.735 492.812 485.916 492.598C493.089 484.321 506.064 474.711 520.613 472.034C533.368 469.687 550.362 472.008 569.732 493.005C581.554 506.612 602.842 523.083 629.821 528.046C658.768 533.372 690.799 524.767 719.678 493.366C719.876 493.153 720.071 492.935 720.263 492.712C727.415 484.41 740.442 474.723 755.059 472.034C767.814 469.687 784.808 472.008 804.178 493.005C815.999 506.612 837.287 523.083 864.267 528.046C893.195 533.368 925.202 524.778 954.067 493.427C954.285 493.195 954.499 492.956 954.709 492.712C961.861 484.41 974.888 474.723 989.505 472.034C1002.26 469.687 1019.25 472.008 1038.62 493.005C1050.45 506.612 1071.73 523.083 1098.71 528.046C1127.7 533.379 1159.78 524.742 1188.69 493.231C1188.88 493.023 1189.07 492.813 1189.25 492.6C1196.42 484.323 1209.4 474.711 1223.95 472.034C1236.7 469.687 1253.7 472.008 1273.07 493.005C1284.89 506.612 1306.18 523.083 1333.16 528.046C1362.15 533.379 1394.23 524.742 1423.14 493.231C1431.41 484.218 1430.8 470.208 1421.79 461.939C1412.78 453.669 1398.77 454.272 1390.5 463.285C1371.04 484.491 1353.97 486.837 1341.17 484.482C1326.56 481.793 1313.53 472.106 1306.38 463.804C1306.23 463.629 1306.07 463.456 1305.92 463.285C1277 431.774 1244.92 423.137 1215.93 428.47C1188.95 433.435 1167.65 449.914 1155.83 463.524C1136.47 484.509 1119.48 486.828 1106.73 484.482C1092.11 481.793 1079.08 472.106 1071.93 463.804C1071.78 463.629 1071.63 463.456 1071.47 463.285C1042.56 431.774 1010.48 423.137 981.49 428.47C954.529 433.43 933.25 449.883 921.424 463.485C902.044 484.506 885.041 486.83 872.281 484.482C857.665 481.793 844.637 472.106 837.486 463.804C837.335 463.629 837.181 463.456 837.025 463.285C808.113 431.774 776.033 423.137 747.044 428.47C720.071 433.432 698.786 449.897 686.963 463.503C667.59 484.507 650.593 486.829 637.836 484.482C623.219 481.793 610.192 472.106 603.04 463.804C602.889 463.629 602.736 463.456 602.579 463.285C573.668 431.774 541.587 423.137 512.599 428.47C485.613 433.435 464.32 449.912 452.501 463.522C433.135 484.509 416.144 486.829 403.391 484.482C388.775 481.793 375.748 472.106 368.596 463.804C368.445 463.629 368.291 463.456 368.135 463.285C339.223 431.774 307.143 423.137 278.154 428.47C251.18 433.433 229.895 449.898 218.072 463.504C198.699 484.507 181.703 486.829 168.946 484.482C154.33 481.793 141.302 472.106 134.151 463.804C134 463.629 133.846 463.456 133.69 463.285C104.778 431.774 72.6975 423.137 43.7092 428.47C16.5366 433.469 -4.86338 450.141 -16.6325 463.804C-24.6155 473.071 -23.5741 487.056 -14.3066 495.038C-5.03902 503.021 8.94523 501.98 16.9281 492.712Z" fill="#E2F163"/>
</g>
<g filter="url(#filter6_ii_656_281)">
<path fill-rule="evenodd" clip-rule="evenodd" d="M16.9281 580.712C24.0799 572.41 37.1072 562.723 51.7236 560.034C64.4786 557.687 81.4728 560.008 100.843 581.005C112.664 594.612 133.952 611.083 160.932 616.046C189.88 621.372 221.913 612.766 250.793 581.36C250.99 581.149 251.183 580.933 251.373 580.712C258.525 572.41 271.552 562.723 286.169 560.034C298.924 557.687 315.918 560.008 335.288 581.005C347.109 594.612 368.398 611.083 395.377 616.046C424.365 621.379 456.446 612.742 485.357 581.231C485.548 581.023 485.735 580.812 485.916 580.598C493.089 572.321 506.064 562.711 520.613 560.034C533.368 557.687 550.362 560.008 569.732 581.005C581.554 594.612 602.842 611.083 629.821 616.046C658.768 621.372 690.799 612.767 719.678 581.366C719.876 581.153 720.071 580.935 720.263 580.712C727.415 572.41 740.442 562.723 755.059 560.034C767.814 557.687 784.808 560.008 804.178 581.005C815.999 594.612 837.287 611.083 864.267 616.046C893.195 621.368 925.202 612.778 954.067 581.427C954.285 581.195 954.499 580.956 954.709 580.712C961.861 572.41 974.888 562.723 989.505 560.034C1002.26 557.687 1019.25 560.008 1038.62 581.005C1050.45 594.612 1071.73 611.083 1098.71 616.046C1127.7 621.379 1159.78 612.742 1188.69 581.231C1188.88 581.023 1189.07 580.813 1189.25 580.6C1196.42 572.323 1209.4 562.711 1223.95 560.034C1236.7 557.687 1253.7 560.008 1273.07 581.005C1284.89 594.612 1306.18 611.083 1333.16 616.046C1362.15 621.379 1394.23 612.742 1423.14 581.231C1431.41 572.218 1430.8 558.208 1421.79 549.939C1412.78 541.669 1398.77 542.272 1390.5 551.285C1371.04 572.491 1353.97 574.837 1341.17 572.482C1326.56 569.793 1313.53 560.106 1306.38 551.804C1306.23 551.629 1306.07 551.456 1305.92 551.285C1277 519.774 1244.92 511.137 1215.93 516.47C1188.95 521.435 1167.65 537.914 1155.83 551.524C1136.47 572.509 1119.48 574.828 1106.73 572.482C1092.11 569.793 1079.08 560.106 1071.93 551.804C1071.78 551.629 1071.63 551.456 1071.47 551.285C1042.56 519.774 1010.48 511.137 981.49 516.47C954.529 521.43 933.25 537.883 921.424 551.485C902.044 572.506 885.041 574.83 872.281 572.482C857.665 569.793 844.637 560.106 837.486 551.804C837.335 551.629 837.181 551.456 837.025 551.285C808.113 519.774 776.033 511.137 747.044 516.47C720.071 521.432 698.786 537.897 686.963 551.503C667.59 572.507 650.593 574.829 637.836 572.482C623.219 569.793 610.192 560.106 603.04 551.804C602.889 551.629 602.736 551.456 602.579 551.285C573.668 519.774 541.587 511.137 512.599 516.47C485.613 521.435 464.32 537.912 452.501 551.522C433.135 572.509 416.144 574.829 403.391 572.482C388.775 569.793 375.748 560.106 368.596 551.804C368.445 551.629 368.291 551.456 368.135 551.285C339.223 519.774 307.143 511.137 278.154 516.47C251.18 521.433 229.895 537.898 218.072 551.504C198.699 572.507 181.703 574.829 168.946 572.482C154.33 569.793 141.302 560.106 134.151 551.804C134 551.629 133.846 551.456 133.69 551.285C104.778 519.774 72.6975 511.137 43.7092 516.47C16.5366 521.469 -4.86338 538.141 -16.6325 551.804C-24.6155 561.071 -23.5741 575.056 -14.3066 583.038C-5.03902 591.021 8.94523 589.98 16.9281 580.712Z" fill="#E2F163"/>
</g>
<g filter="url(#filter7_ii_656_281)">
<path fill-rule="evenodd" clip-rule="evenodd" d="M1189.28 668.567C1196.46 660.297 1209.42 650.707 1223.95 648.034C1236.7 645.687 1253.7 648.008 1273.07 669.005C1284.89 682.612 1306.18 699.083 1333.16 704.046C1362.15 709.379 1394.23 700.742 1423.14 669.231C1431.41 660.218 1430.8 646.208 1421.79 637.939C1412.78 629.669 1398.77 630.272 1390.5 639.285C1371.04 660.491 1353.97 662.837 1341.17 660.482C1326.55 657.793 1313.53 648.106 1306.38 639.804C1306.22 639.629 1306.07 639.456 1305.91 639.285C1277 607.774 1244.92 599.137 1215.93 604.47C1188.94 609.436 1167.64 625.923 1155.82 639.535C1136.46 660.51 1119.48 662.828 1106.73 660.483C1092.11 657.794 1079.08 648.106 1071.93 639.804C1071.78 639.629 1071.63 639.456 1071.47 639.285C1042.56 607.774 1010.48 599.137 981.49 604.47C954.529 609.43 933.25 625.883 921.424 639.485C902.044 660.506 885.041 662.83 872.281 660.483C857.665 657.794 844.637 648.106 837.486 639.804C837.335 639.629 837.181 639.456 837.025 639.285C808.113 607.774 776.033 599.137 747.044 604.47C720.071 609.432 698.786 625.897 686.963 639.503C667.59 660.507 650.593 662.829 637.836 660.483C623.219 657.794 610.192 648.106 603.04 639.804C602.889 639.629 602.736 639.456 602.579 639.285C573.668 607.774 541.587 599.137 512.599 604.47C485.613 609.435 464.32 625.912 452.501 639.522C433.135 660.509 416.144 662.829 403.391 660.483C388.775 657.794 375.748 648.106 368.596 639.804C368.445 639.629 368.291 639.456 368.135 639.285C339.223 607.774 307.143 599.137 278.154 604.47C251.18 609.433 229.895 625.898 218.072 639.504C198.699 660.507 181.703 662.829 168.946 660.483C154.33 657.794 141.302 648.106 134.151 639.804C134 639.629 133.846 639.456 133.69 639.285C104.778 607.774 72.6975 599.137 43.7092 604.47C16.5366 609.469 -4.86338 626.141 -16.6325 639.804C-24.6155 649.071 -23.5741 663.056 -14.3066 671.039C-5.03902 679.021 8.94523 677.98 16.9281 668.713C24.0799 660.41 37.1072 650.723 51.7236 648.034C64.4786 645.687 81.4728 648.008 100.843 669.005C112.664 682.612 133.952 699.083 160.932 704.046C189.88 709.372 221.913 700.766 250.793 669.361C250.99 669.149 251.183 668.933 251.373 668.713C258.525 660.41 271.552 650.723 286.169 648.034C298.924 645.687 315.918 648.008 335.288 669.005C347.109 682.612 368.398 699.083 395.377 704.046C424.365 709.379 456.446 700.743 485.357 669.231C485.548 669.023 485.735 668.812 485.916 668.599C493.089 660.322 506.064 650.711 520.613 648.034C533.368 645.687 550.362 648.008 569.732 669.005C581.554 682.612 602.842 699.083 629.821 704.046C658.768 709.372 690.799 700.767 719.678 669.366C719.876 669.153 720.071 668.935 720.263 668.713C727.415 660.41 740.442 650.723 755.059 648.034C767.814 645.687 784.808 648.008 804.178 669.005C815.999 682.612 837.287 699.083 864.267 704.046C893.195 709.368 925.202 700.778 954.067 669.427C954.285 669.195 954.499 668.957 954.709 668.713C961.861 660.41 974.888 650.723 989.505 648.034C1002.26 645.687 1019.25 648.008 1038.62 669.005C1050.45 682.612 1071.73 699.083 1098.71 704.046C1127.7 709.379 1159.78 700.743 1188.69 669.231C1188.89 669.013 1189.09 668.791 1189.28 668.567Z" fill="#E2F163"/>
</g>
<g filter="url(#filter8_ii_656_281)">
<path fill-rule="evenodd" clip-rule="evenodd" d="M1189.28 756.567C1196.46 748.297 1209.42 738.707 1223.95 736.034C1236.7 733.687 1253.7 736.008 1273.07 757.005C1284.89 770.612 1306.18 787.083 1333.16 792.046C1362.15 797.379 1394.23 788.742 1423.14 757.231C1431.41 748.218 1430.8 734.208 1421.79 725.939C1412.78 717.669 1398.77 718.272 1390.5 727.285C1371.04 748.491 1353.97 750.837 1341.17 748.482C1326.55 745.793 1313.53 736.106 1306.38 727.804C1306.22 727.629 1306.07 727.456 1305.91 727.285C1277 695.774 1244.92 687.137 1215.93 692.47C1188.94 697.436 1167.64 713.923 1155.82 727.535C1136.46 748.51 1119.48 750.828 1106.73 748.483C1092.11 745.794 1079.08 736.106 1071.93 727.804C1071.78 727.629 1071.63 727.456 1071.47 727.285C1042.56 695.774 1010.48 687.137 981.49 692.47C954.529 697.43 933.25 713.883 921.424 727.485C902.044 748.506 885.041 750.83 872.281 748.483C857.665 745.794 844.637 736.106 837.486 727.804C837.335 727.629 837.181 727.456 837.025 727.285C808.113 695.774 776.033 687.137 747.044 692.47C720.071 697.432 698.786 713.897 686.963 727.503C667.59 748.507 650.593 750.829 637.836 748.483C623.219 745.794 610.192 736.106 603.04 727.804C602.889 727.629 602.736 727.456 602.579 727.285C573.668 695.774 541.587 687.137 512.599 692.47C485.613 697.435 464.32 713.912 452.501 727.522C433.135 748.509 416.144 750.829 403.391 748.483C388.775 745.794 375.748 736.106 368.596 727.804C368.445 727.629 368.291 727.456 368.135 727.285C339.223 695.774 307.143 687.137 278.154 692.47C251.18 697.433 229.895 713.898 218.072 727.504C198.699 748.507 181.703 750.829 168.946 748.483C154.33 745.794 141.302 736.106 134.151 727.804C134 727.629 133.846 727.456 133.69 727.285C104.778 695.774 72.6975 687.137 43.7092 692.47C16.5366 697.469 -4.86338 714.141 -16.6325 727.804C-24.6155 737.071 -23.5741 751.056 -14.3066 759.039C-5.03902 767.021 8.94523 765.98 16.9281 756.713C24.0799 748.41 37.1072 738.723 51.7236 736.034C64.4786 733.687 81.4728 736.008 100.843 757.005C112.664 770.612 133.952 787.083 160.932 792.046C189.88 797.372 221.913 788.766 250.793 757.361C250.99 757.149 251.183 756.933 251.373 756.713C258.525 748.41 271.552 738.723 286.169 736.034C298.924 733.687 315.918 736.008 335.288 757.005C347.109 770.612 368.398 787.083 395.377 792.046C424.365 797.379 456.446 788.743 485.357 757.231C485.548 757.023 485.735 756.812 485.916 756.599C493.089 748.322 506.064 738.711 520.613 736.034C533.368 733.687 550.362 736.008 569.732 757.005C581.554 770.612 602.842 787.083 629.821 792.046C658.768 797.372 690.799 788.767 719.678 757.366C719.876 757.153 720.071 756.935 720.263 756.713C727.415 748.41 740.442 738.723 755.059 736.034C767.814 733.687 784.808 736.008 804.178 757.005C815.999 770.612 837.287 787.083 864.267 792.046C893.195 797.368 925.202 788.778 954.067 757.427C954.285 757.195 954.499 756.957 954.709 756.713C961.861 748.41 974.888 738.723 989.505 736.034C1002.26 733.687 1019.25 736.008 1038.62 757.005C1050.45 770.612 1071.73 787.083 1098.71 792.046C1127.7 797.379 1159.78 788.743 1188.69 757.231C1188.89 757.013 1189.09 756.791 1189.28 756.567Z" fill="#E2F163"/>
</g>
<g filter="url(#filter9_ii_656_281)">
<path fill-rule="evenodd" clip-rule="evenodd" d="M1189.28 844.567C1196.46 836.297 1209.42 826.707 1223.95 824.034C1236.7 821.687 1253.7 824.008 1273.07 845.005C1284.89 858.612 1306.18 875.083 1333.16 880.046C1362.15 885.379 1394.23 876.742 1423.14 845.231C1431.41 836.218 1430.8 822.208 1421.79 813.939C1412.78 805.669 1398.77 806.272 1390.5 815.285C1371.04 836.491 1353.97 838.837 1341.17 836.482C1326.55 833.793 1313.53 824.106 1306.38 815.804C1306.22 815.629 1306.07 815.456 1305.91 815.285C1277 783.774 1244.92 775.137 1215.93 780.47C1188.94 785.436 1167.64 801.923 1155.82 815.535C1136.46 836.51 1119.48 838.828 1106.73 836.483C1092.11 833.794 1079.08 824.106 1071.93 815.804C1071.78 815.629 1071.63 815.456 1071.47 815.285C1042.56 783.774 1010.48 775.137 981.49 780.47C954.529 785.43 933.25 801.883 921.424 815.485C902.044 836.506 885.041 838.83 872.281 836.483C857.665 833.794 844.637 824.106 837.486 815.804C837.335 815.629 837.181 815.456 837.025 815.285C808.113 783.774 776.033 775.137 747.044 780.47C720.071 785.432 698.786 801.897 686.963 815.503C667.59 836.507 650.593 838.829 637.836 836.483C623.219 833.794 610.192 824.106 603.04 815.804C602.889 815.629 602.736 815.456 602.579 815.285C573.668 783.774 541.587 775.137 512.599 780.47C485.613 785.435 464.32 801.912 452.501 815.522C433.135 836.509 416.144 838.829 403.391 836.483C388.775 833.794 375.748 824.106 368.596 815.804C368.445 815.629 368.291 815.456 368.135 815.285C339.223 783.774 307.143 775.137 278.154 780.47C251.18 785.433 229.895 801.898 218.072 815.504C198.699 836.507 181.703 838.829 168.946 836.483C154.33 833.794 141.302 824.106 134.151 815.804C134 815.629 133.846 815.456 133.69 815.285C104.778 783.774 72.6975 775.137 43.7092 780.47C16.5366 785.469 -4.86338 802.141 -16.6325 815.804C-24.6155 825.071 -23.5741 839.056 -14.3066 847.039C-5.03902 855.021 8.94523 853.98 16.9281 844.713C24.0799 836.41 37.1072 826.723 51.7236 824.034C64.4786 821.687 81.4728 824.008 100.843 845.005C112.664 858.612 133.952 875.083 160.932 880.046C189.88 885.372 221.913 876.766 250.793 845.361C250.99 845.149 251.183 844.933 251.373 844.713C258.525 836.41 271.552 826.723 286.169 824.034C298.924 821.687 315.918 824.008 335.288 845.005C347.109 858.612 368.398 875.083 395.377 880.046C424.365 885.379 456.446 876.743 485.357 845.231C485.548 845.023 485.735 844.812 485.916 844.599C493.089 836.322 506.064 826.711 520.613 824.034C533.368 821.687 550.362 824.008 569.732 845.005C581.554 858.612 602.842 875.083 629.821 880.046C658.768 885.372 690.799 876.767 719.678 845.366C719.876 845.153 720.071 844.935 720.263 844.713C727.415 836.41 740.442 826.723 755.059 824.034C767.814 821.687 784.808 824.008 804.178 845.005C815.999 858.612 837.287 875.083 864.267 880.046C893.195 885.368 925.202 876.778 954.067 845.427C954.285 845.195 954.499 844.957 954.709 844.713C961.861 836.41 974.888 826.723 989.505 824.034C1002.26 821.687 1019.25 824.008 1038.62 845.005C1050.45 858.612 1071.73 875.083 1098.71 880.046C1127.7 885.379 1159.78 876.743 1188.69 845.231C1188.89 845.013 1189.09 844.791 1189.28 844.567Z" fill="#E2F163"/>
</g>
<g filter="url(#filter10_ii_656_281)">
<path fill-rule="evenodd" clip-rule="evenodd" d="M16.9281 936.712C24.0799 928.41 37.1072 918.723 51.7236 916.034C64.4786 913.687 81.4728 916.008 100.843 937.005C112.664 950.612 133.952 967.083 160.932 972.046C189.88 977.372 221.913 968.766 250.793 937.36C250.99 937.149 251.183 936.933 251.373 936.712C258.525 928.41 271.552 918.723 286.169 916.034C298.924 913.687 315.918 916.008 335.288 937.005C347.109 950.612 368.398 967.083 395.377 972.046C424.365 977.379 456.446 968.742 485.357 937.231C485.548 937.023 485.735 936.812 485.916 936.598C493.089 928.321 506.064 918.711 520.613 916.034C533.368 913.687 550.362 916.008 569.732 937.005C581.554 950.612 602.842 967.083 629.821 972.046C658.768 977.372 690.799 968.767 719.678 937.366C719.876 937.153 720.071 936.935 720.263 936.712C727.415 928.41 740.442 918.723 755.059 916.034C767.814 913.687 784.808 916.008 804.178 937.005C815.999 950.612 837.287 967.083 864.267 972.046C893.195 977.368 925.202 968.778 954.067 937.427C954.285 937.195 954.499 936.956 954.709 936.712C961.861 928.41 974.888 918.723 989.505 916.034C1002.26 913.687 1019.25 916.008 1038.62 937.005C1050.45 950.612 1071.73 967.083 1098.71 972.046C1127.7 977.379 1159.78 968.742 1188.69 937.231C1188.88 937.023 1189.07 936.813 1189.25 936.6C1196.42 928.323 1209.4 918.711 1223.95 916.034C1236.7 913.687 1253.7 916.008 1273.07 937.005C1284.89 950.612 1306.18 967.083 1333.16 972.046C1362.15 977.379 1394.23 968.742 1423.14 937.231C1431.41 928.218 1430.8 914.208 1421.79 905.939C1412.78 897.669 1398.77 898.272 1390.5 907.285C1371.04 928.491 1353.97 930.837 1341.17 928.482C1326.56 925.793 1313.53 916.106 1306.38 907.804C1306.23 907.629 1306.07 907.456 1305.92 907.285C1277 875.774 1244.92 867.137 1215.93 872.47C1188.95 877.435 1167.65 893.914 1155.83 907.524C1136.47 928.509 1119.48 930.828 1106.73 928.482C1092.11 925.793 1079.08 916.106 1071.93 907.804C1071.78 907.629 1071.63 907.456 1071.47 907.285C1042.56 875.774 1010.48 867.137 981.49 872.47C954.529 877.43 933.25 893.883 921.424 907.485C902.044 928.506 885.041 930.83 872.281 928.482C857.665 925.793 844.637 916.106 837.486 907.804C837.335 907.629 837.181 907.456 837.025 907.285C808.113 875.774 776.033 867.137 747.044 872.47C720.071 877.432 698.786 893.897 686.963 907.503C667.59 928.507 650.593 930.829 637.836 928.482C623.219 925.793 610.192 916.106 603.04 907.804C602.889 907.629 602.736 907.456 602.579 907.285C573.668 875.774 541.587 867.137 512.599 872.47C485.613 877.435 464.32 893.912 452.501 907.522C433.135 928.509 416.144 930.829 403.391 928.482C388.775 925.793 375.748 916.106 368.596 907.804C368.445 907.629 368.291 907.456 368.135 907.285C339.223 875.774 307.143 867.137 278.154 872.47C251.18 877.433 229.895 893.898 218.072 907.504C198.699 928.507 181.703 930.829 168.946 928.482C154.33 925.793 141.302 916.106 134.151 907.804C134 907.629 133.846 907.456 133.69 907.285C104.778 875.774 72.6975 867.137 43.7092 872.47C16.5366 877.469 -4.86338 894.141 -16.6325 907.804C-24.6155 917.071 -23.5741 931.056 -14.3066 939.038C-5.03902 947.021 8.94523 945.98 16.9281 936.712Z" fill="#E2F163"/>
</g>
<g filter="url(#filter11_ii_656_281)">
<path fill-rule="evenodd" clip-rule="evenodd" d="M16.9281 1024.71C24.0799 1016.41 37.1072 1006.72 51.7236 1004.03C64.4786 1001.69 81.4728 1004.01 100.843 1025C112.664 1038.61 133.952 1055.08 160.932 1060.05C189.88 1065.37 221.913 1056.77 250.793 1025.36C250.99 1025.15 251.183 1024.93 251.373 1024.71C258.525 1016.41 271.552 1006.72 286.169 1004.03C298.924 1001.69 315.918 1004.01 335.288 1025C347.109 1038.61 368.398 1055.08 395.377 1060.05C424.365 1065.38 456.446 1056.74 485.357 1025.23C485.548 1025.02 485.735 1024.81 485.916 1024.6C493.089 1016.32 506.064 1006.71 520.613 1004.03C533.368 1001.69 550.362 1004.01 569.732 1025C581.554 1038.61 602.842 1055.08 629.821 1060.05C658.768 1065.37 690.799 1056.77 719.678 1025.37C719.876 1025.15 720.071 1024.93 720.263 1024.71C727.415 1016.41 740.442 1006.72 755.059 1004.03C767.814 1001.69 784.808 1004.01 804.178 1025C815.999 1038.61 837.287 1055.08 864.267 1060.05C893.195 1065.37 925.202 1056.78 954.067 1025.43C954.285 1025.19 954.499 1024.96 954.709 1024.71C961.861 1016.41 974.888 1006.72 989.505 1004.03C1002.26 1001.69 1019.25 1004.01 1038.62 1025C1050.45 1038.61 1071.73 1055.08 1098.71 1060.05C1127.7 1065.38 1159.78 1056.74 1188.69 1025.23C1188.88 1025.02 1189.07 1024.81 1189.25 1024.6C1196.42 1016.32 1209.4 1006.71 1223.95 1004.03C1236.7 1001.69 1253.7 1004.01 1273.07 1025C1284.89 1038.61 1306.18 1055.08 1333.16 1060.05C1362.15 1065.38 1394.23 1056.74 1423.14 1025.23C1431.41 1016.22 1430.8 1002.21 1421.79 993.939C1412.78 985.669 1398.77 986.272 1390.5 995.285C1371.04 1016.49 1353.97 1018.84 1341.17 1016.48C1326.56 1013.79 1313.53 1004.11 1306.38 995.804C1306.23 995.629 1306.07 995.456 1305.92 995.285C1277 963.774 1244.92 955.137 1215.93 960.47C1188.95 965.435 1167.65 981.914 1155.83 995.524C1136.47 1016.51 1119.48 1018.83 1106.73 1016.48C1092.11 1013.79 1079.08 1004.11 1071.93 995.804C1071.78 995.629 1071.63 995.456 1071.47 995.285C1042.56 963.774 1010.48 955.137 981.49 960.47C954.529 965.43 933.25 981.883 921.424 995.485C902.044 1016.51 885.041 1018.83 872.281 1016.48C857.665 1013.79 844.637 1004.11 837.486 995.804C837.335 995.629 837.181 995.456 837.025 995.285C808.113 963.774 776.033 955.137 747.044 960.47C720.071 965.432 698.786 981.897 686.963 995.503C667.59 1016.51 650.593 1018.83 637.836 1016.48C623.219 1013.79 610.192 1004.11 603.04 995.804C602.889 995.629 602.736 995.456 602.579 995.285C573.668 963.774 541.587 955.137 512.599 960.47C485.613 965.435 464.32 981.912 452.501 995.522C433.135 1016.51 416.144 1018.83 403.391 1016.48C388.775 1013.79 375.748 1004.11 368.596 995.804C368.445 995.629 368.291 995.456 368.135 995.285C339.223 963.774 307.143 955.137 278.154 960.47C251.18 965.433 229.895 981.898 218.072 995.504C198.699 1016.51 181.703 1018.83 168.946 1016.48C154.33 1013.79 141.302 1004.11 134.151 995.804C134 995.629 133.846 995.456 133.69 995.285C104.778 963.774 72.6975 955.137 43.7092 960.47C16.5366 965.469 -4.86338 982.141 -16.6325 995.804C-24.6155 1005.07 -23.5741 1019.06 -14.3066 1027.04C-5.03902 1035.02 8.94523 1033.98 16.9281 1024.71Z" fill="#E2F163"/>
</g>
<g filter="url(#filter12_ii_656_281)">
<path fill-rule="evenodd" clip-rule="evenodd" d="M16.9281 1112.71C24.0799 1104.41 37.1072 1094.72 51.7236 1092.03C64.4786 1089.69 81.4728 1092.01 100.843 1113C112.664 1126.61 133.952 1143.08 160.932 1148.05C189.88 1153.37 221.913 1144.77 250.793 1113.36C250.99 1113.15 251.183 1112.93 251.373 1112.71C258.525 1104.41 271.552 1094.72 286.169 1092.03C298.924 1089.69 315.918 1092.01 335.288 1113C347.109 1126.61 368.398 1143.08 395.377 1148.05C424.365 1153.38 456.446 1144.74 485.357 1113.23C485.548 1113.02 485.735 1112.81 485.916 1112.6C493.089 1104.32 506.064 1094.71 520.613 1092.03C533.368 1089.69 550.362 1092.01 569.732 1113C581.554 1126.61 602.842 1143.08 629.821 1148.05C658.768 1153.37 690.799 1144.77 719.678 1113.37C719.876 1113.15 720.071 1112.93 720.263 1112.71C727.415 1104.41 740.442 1094.72 755.059 1092.03C767.814 1089.69 784.808 1092.01 804.178 1113C815.999 1126.61 837.287 1143.08 864.267 1148.05C893.195 1153.37 925.202 1144.78 954.067 1113.43C954.285 1113.19 954.499 1112.96 954.709 1112.71C961.861 1104.41 974.888 1094.72 989.505 1092.03C1002.26 1089.69 1019.25 1092.01 1038.62 1113C1050.45 1126.61 1071.73 1143.08 1098.71 1148.05C1127.7 1153.38 1159.78 1144.74 1188.69 1113.23C1188.88 1113.02 1189.07 1112.81 1189.25 1112.6C1196.42 1104.32 1209.4 1094.71 1223.95 1092.03C1236.7 1089.69 1253.7 1092.01 1273.07 1113C1284.89 1126.61 1306.18 1143.08 1333.16 1148.05C1362.15 1153.38 1394.23 1144.74 1423.14 1113.23C1431.41 1104.22 1430.8 1090.21 1421.79 1081.94C1412.78 1073.67 1398.77 1074.27 1390.5 1083.29C1371.04 1104.49 1353.97 1106.84 1341.17 1104.48C1326.56 1101.79 1313.53 1092.11 1306.38 1083.8C1306.23 1083.63 1306.07 1083.46 1305.92 1083.29C1277 1051.77 1244.92 1043.14 1215.93 1048.47C1188.95 1053.43 1167.65 1069.91 1155.83 1083.52C1136.47 1104.51 1119.48 1106.83 1106.73 1104.48C1092.11 1101.79 1079.08 1092.11 1071.93 1083.8C1071.78 1083.63 1071.63 1083.46 1071.47 1083.29C1042.56 1051.77 1010.48 1043.14 981.49 1048.47C954.529 1053.43 933.25 1069.88 921.424 1083.49C902.044 1104.51 885.041 1106.83 872.281 1104.48C857.665 1101.79 844.637 1092.11 837.486 1083.8C837.335 1083.63 837.181 1083.46 837.025 1083.29C808.113 1051.77 776.033 1043.14 747.044 1048.47C720.071 1053.43 698.786 1069.9 686.963 1083.5C667.59 1104.51 650.593 1106.83 637.836 1104.48C623.219 1101.79 610.192 1092.11 603.04 1083.8C602.889 1083.63 602.736 1083.46 602.579 1083.29C573.668 1051.77 541.587 1043.14 512.599 1048.47C485.613 1053.43 464.32 1069.91 452.501 1083.52C433.135 1104.51 416.144 1106.83 403.391 1104.48C388.775 1101.79 375.748 1092.11 368.596 1083.8C368.445 1083.63 368.291 1083.46 368.135 1083.29C339.223 1051.77 307.143 1043.14 278.154 1048.47C251.18 1053.43 229.895 1069.9 218.072 1083.5C198.699 1104.51 181.703 1106.83 168.946 1104.48C154.33 1101.79 141.302 1092.11 134.151 1083.8C134 1083.63 133.846 1083.46 133.69 1083.29C104.778 1051.77 72.6975 1043.14 43.7092 1048.47C16.5366 1053.47 -4.86338 1070.14 -16.6325 1083.8C-24.6155 1093.07 -23.5741 1107.06 -14.3066 1115.04C-5.03902 1123.02 8.94523 1121.98 16.9281 1112.71Z" fill="#E2F163"/>
</g>
<g filter="url(#filter13_ii_656_281)">
<path fill-rule="evenodd" clip-rule="evenodd" d="M16.9281 1200.71C24.0799 1192.41 37.1072 1182.72 51.7236 1180.03C64.4786 1177.69 81.4728 1180.01 100.843 1201C112.664 1214.61 133.952 1231.08 160.932 1236.05C189.88 1241.37 221.913 1232.77 250.793 1201.36C250.99 1201.15 251.183 1200.93 251.373 1200.71C258.525 1192.41 271.552 1182.72 286.169 1180.03C298.924 1177.69 315.918 1180.01 335.288 1201C347.109 1214.61 368.398 1231.08 395.377 1236.05C424.365 1241.38 456.446 1232.74 485.357 1201.23C485.548 1201.02 485.735 1200.81 485.916 1200.6C493.089 1192.32 506.064 1182.71 520.613 1180.03C533.368 1177.69 550.362 1180.01 569.732 1201C581.554 1214.61 602.842 1231.08 629.821 1236.05C658.768 1241.37 690.799 1232.77 719.678 1201.37C719.876 1201.15 720.071 1200.93 720.263 1200.71C727.415 1192.41 740.442 1182.72 755.059 1180.03C767.814 1177.69 784.808 1180.01 804.178 1201C815.999 1214.61 837.287 1231.08 864.267 1236.05C893.195 1241.37 925.202 1232.78 954.067 1201.43C954.285 1201.19 954.499 1200.96 954.709 1200.71C961.861 1192.41 974.888 1182.72 989.505 1180.03C1002.26 1177.69 1019.25 1180.01 1038.62 1201C1050.45 1214.61 1071.73 1231.08 1098.71 1236.05C1127.7 1241.38 1159.78 1232.74 1188.69 1201.23C1188.88 1201.02 1189.07 1200.81 1189.25 1200.6C1196.42 1192.32 1209.4 1182.71 1223.95 1180.03C1236.7 1177.69 1253.7 1180.01 1273.07 1201C1284.89 1214.61 1306.18 1231.08 1333.16 1236.05C1362.15 1241.38 1394.23 1232.74 1423.14 1201.23C1431.41 1192.22 1430.8 1178.21 1421.79 1169.94C1412.78 1161.67 1398.77 1162.27 1390.5 1171.29C1371.04 1192.49 1353.97 1194.84 1341.17 1192.48C1326.56 1189.79 1313.53 1180.11 1306.38 1171.8C1306.23 1171.63 1306.07 1171.46 1305.92 1171.29C1277 1139.77 1244.92 1131.14 1215.93 1136.47C1188.95 1141.43 1167.65 1157.91 1155.83 1171.52C1136.47 1192.51 1119.48 1194.83 1106.73 1192.48C1092.11 1189.79 1079.08 1180.11 1071.93 1171.8C1071.78 1171.63 1071.63 1171.46 1071.47 1171.29C1042.56 1139.77 1010.48 1131.14 981.49 1136.47C954.529 1141.43 933.25 1157.88 921.424 1171.49C902.044 1192.51 885.041 1194.83 872.281 1192.48C857.665 1189.79 844.637 1180.11 837.486 1171.8C837.335 1171.63 837.181 1171.46 837.025 1171.29C808.113 1139.77 776.033 1131.14 747.044 1136.47C720.071 1141.43 698.786 1157.9 686.963 1171.5C667.59 1192.51 650.593 1194.83 637.836 1192.48C623.219 1189.79 610.192 1180.11 603.04 1171.8C602.889 1171.63 602.736 1171.46 602.579 1171.29C573.668 1139.77 541.587 1131.14 512.599 1136.47C485.613 1141.43 464.32 1157.91 452.501 1171.52C433.135 1192.51 416.144 1194.83 403.391 1192.48C388.775 1189.79 375.748 1180.11 368.596 1171.8C368.445 1171.63 368.291 1171.46 368.135 1171.29C339.223 1139.77 307.143 1131.14 278.154 1136.47C251.18 1141.43 229.895 1157.9 218.072 1171.5C198.699 1192.51 181.703 1194.83 168.946 1192.48C154.33 1189.79 141.302 1180.11 134.151 1171.8C134 1171.63 133.846 1171.46 133.69 1171.29C104.778 1139.77 72.6975 1131.14 43.7092 1136.47C16.5366 1141.47 -4.86338 1158.14 -16.6325 1171.8C-24.6155 1181.07 -23.5741 1195.06 -14.3066 1203.04C-5.03902 1211.02 8.94523 1209.98 16.9281 1200.71Z" fill="#E2F163"/>
</g>
<g filter="url(#filter14_ii_656_281)">
<path fill-rule="evenodd" clip-rule="evenodd" d="M16.9281 1288.71C24.0799 1280.41 37.1072 1270.72 51.7236 1268.03C64.4786 1265.69 81.4728 1268.01 100.843 1289C112.664 1302.61 133.952 1319.08 160.932 1324.05C189.88 1329.37 221.913 1320.77 250.793 1289.36C250.99 1289.15 251.183 1288.93 251.373 1288.71C258.525 1280.41 271.552 1270.72 286.169 1268.03C298.924 1265.69 315.918 1268.01 335.288 1289C347.109 1302.61 368.398 1319.08 395.377 1324.05C424.365 1329.38 456.446 1320.74 485.357 1289.23C485.548 1289.02 485.735 1288.81 485.916 1288.6C493.089 1280.32 506.064 1270.71 520.613 1268.03C533.368 1265.69 550.362 1268.01 569.732 1289C581.554 1302.61 602.842 1319.08 629.821 1324.05C658.768 1329.37 690.799 1320.77 719.678 1289.37C719.876 1289.15 720.071 1288.93 720.263 1288.71C727.415 1280.41 740.442 1270.72 755.059 1268.03C767.814 1265.69 784.808 1268.01 804.178 1289C815.999 1302.61 837.287 1319.08 864.267 1324.05C893.195 1329.37 925.202 1320.78 954.067 1289.43C954.285 1289.19 954.499 1288.96 954.709 1288.71C961.861 1280.41 974.888 1270.72 989.505 1268.03C1002.26 1265.69 1019.25 1268.01 1038.62 1289C1050.45 1302.61 1071.73 1319.08 1098.71 1324.05C1127.7 1329.38 1159.78 1320.74 1188.69 1289.23C1188.88 1289.02 1189.07 1288.81 1189.25 1288.6C1196.42 1280.32 1209.4 1270.71 1223.95 1268.03C1236.7 1265.69 1253.7 1268.01 1273.07 1289C1284.89 1302.61 1306.18 1319.08 1333.16 1324.05C1362.15 1329.38 1394.23 1320.74 1423.14 1289.23C1431.41 1280.22 1430.8 1266.21 1421.79 1257.94C1412.78 1249.67 1398.77 1250.27 1390.5 1259.29C1371.04 1280.49 1353.97 1282.84 1341.17 1280.48C1326.56 1277.79 1313.53 1268.11 1306.38 1259.8C1306.23 1259.63 1306.07 1259.46 1305.92 1259.29C1277 1227.77 1244.92 1219.14 1215.93 1224.47C1188.95 1229.43 1167.65 1245.91 1155.83 1259.52C1136.47 1280.51 1119.48 1282.83 1106.73 1280.48C1092.11 1277.79 1079.08 1268.11 1071.93 1259.8C1071.78 1259.63 1071.63 1259.46 1071.47 1259.29C1042.56 1227.77 1010.48 1219.14 981.49 1224.47C954.529 1229.43 933.25 1245.88 921.424 1259.49C902.044 1280.51 885.041 1282.83 872.281 1280.48C857.665 1277.79 844.637 1268.11 837.486 1259.8C837.335 1259.63 837.181 1259.46 837.025 1259.29C808.113 1227.77 776.033 1219.14 747.044 1224.47C720.071 1229.43 698.786 1245.9 686.963 1259.5C667.59 1280.51 650.593 1282.83 637.836 1280.48C623.219 1277.79 610.192 1268.11 603.04 1259.8C602.889 1259.63 602.736 1259.46 602.579 1259.29C573.668 1227.77 541.587 1219.14 512.599 1224.47C485.613 1229.43 464.32 1245.91 452.501 1259.52C433.135 1280.51 416.144 1282.83 403.391 1280.48C388.775 1277.79 375.748 1268.11 368.596 1259.8C368.445 1259.63 368.291 1259.46 368.135 1259.29C339.223 1227.77 307.143 1219.14 278.154 1224.47C251.18 1229.43 229.895 1245.9 218.072 1259.5C198.699 1280.51 181.703 1282.83 168.946 1280.48C154.33 1277.79 141.302 1268.11 134.151 1259.8C134 1259.63 133.846 1259.46 133.69 1259.29C104.778 1227.77 72.6975 1219.14 43.7092 1224.47C16.5366 1229.47 -4.86338 1246.14 -16.6325 1259.8C-24.6155 1269.07 -23.5741 1283.06 -14.3066 1291.04C-5.03902 1299.02 8.94523 1297.98 16.9281 1288.71Z" fill="#E2F163"/>
</g>
<g filter="url(#filter15_ii_656_281)">
<path fill-rule="evenodd" clip-rule="evenodd" d="M16.9281 1376.71C24.0799 1368.41 37.1072 1358.72 51.7236 1356.03C64.4786 1353.69 81.4728 1356.01 100.843 1377C112.664 1390.61 133.952 1407.08 160.932 1412.05C189.88 1417.37 221.913 1408.77 250.793 1377.36C250.99 1377.15 251.183 1376.93 251.373 1376.71C258.525 1368.41 271.552 1358.72 286.169 1356.03C298.924 1353.69 315.918 1356.01 335.288 1377C347.109 1390.61 368.398 1407.08 395.377 1412.05C424.365 1417.38 456.446 1408.74 485.357 1377.23C485.548 1377.02 485.735 1376.81 485.916 1376.6C493.089 1368.32 506.064 1358.71 520.613 1356.03C533.368 1353.69 550.362 1356.01 569.732 1377C581.554 1390.61 602.842 1407.08 629.821 1412.05C658.768 1417.37 690.799 1408.77 719.678 1377.37C719.876 1377.15 720.071 1376.93 720.263 1376.71C727.415 1368.41 740.442 1358.72 755.059 1356.03C767.814 1353.69 784.808 1356.01 804.178 1377C815.999 1390.61 837.287 1407.08 864.267 1412.05C893.195 1417.37 925.202 1408.78 954.067 1377.43C954.285 1377.19 954.499 1376.96 954.709 1376.71C961.861 1368.41 974.888 1358.72 989.505 1356.03C1002.26 1353.69 1019.25 1356.01 1038.62 1377C1050.45 1390.61 1071.73 1407.08 1098.71 1412.05C1127.7 1417.38 1159.78 1408.74 1188.69 1377.23C1188.88 1377.02 1189.07 1376.81 1189.25 1376.6C1196.42 1368.32 1209.4 1358.71 1223.95 1356.03C1236.7 1353.69 1253.7 1356.01 1273.07 1377C1284.89 1390.61 1306.18 1407.08 1333.16 1412.05C1362.15 1417.38 1394.23 1408.74 1423.14 1377.23C1431.41 1368.22 1430.8 1354.21 1421.79 1345.94C1412.78 1337.67 1398.77 1338.27 1390.5 1347.29C1371.04 1368.49 1353.97 1370.84 1341.17 1368.48C1326.56 1365.79 1313.53 1356.11 1306.38 1347.8C1306.23 1347.63 1306.07 1347.46 1305.92 1347.29C1277 1315.77 1244.92 1307.14 1215.93 1312.47C1188.95 1317.43 1167.65 1333.91 1155.83 1347.52C1136.47 1368.51 1119.48 1370.83 1106.73 1368.48C1092.11 1365.79 1079.08 1356.11 1071.93 1347.8C1071.78 1347.63 1071.63 1347.46 1071.47 1347.29C1042.56 1315.77 1010.48 1307.14 981.49 1312.47C954.529 1317.43 933.25 1333.88 921.424 1347.49C902.044 1368.51 885.041 1370.83 872.281 1368.48C857.665 1365.79 844.637 1356.11 837.486 1347.8C837.335 1347.63 837.181 1347.46 837.025 1347.29C808.113 1315.77 776.033 1307.14 747.044 1312.47C720.071 1317.43 698.786 1333.9 686.963 1347.5C667.59 1368.51 650.593 1370.83 637.836 1368.48C623.219 1365.79 610.192 1356.11 603.04 1347.8C602.889 1347.63 602.736 1347.46 602.579 1347.29C573.668 1315.77 541.587 1307.14 512.599 1312.47C485.613 1317.43 464.32 1333.91 452.501 1347.52C433.135 1368.51 416.144 1370.83 403.391 1368.48C388.775 1365.79 375.748 1356.11 368.596 1347.8C368.445 1347.63 368.291 1347.46 368.135 1347.29C339.223 1315.77 307.143 1307.14 278.154 1312.47C251.18 1317.43 229.895 1333.9 218.072 1347.5C198.699 1368.51 181.703 1370.83 168.946 1368.48C154.33 1365.79 141.302 1356.11 134.151 1347.8C134 1347.63 133.846 1347.46 133.69 1347.29C104.778 1315.77 72.6975 1307.14 43.7092 1312.47C16.5366 1317.47 -4.86338 1334.14 -16.6325 1347.8C-24.6155 1357.07 -23.5741 1371.06 -14.3066 1379.04C-5.03902 1387.02 8.94523 1385.98 16.9281 1376.71Z" fill="#E2F163"/>
</g>
<g filter="url(#filter16_ii_656_281)">
<path fill-rule="evenodd" clip-rule="evenodd" d="M16.9281 1464.71C24.0799 1456.41 37.1072 1446.72 51.7236 1444.03C64.4786 1441.69 81.4728 1444.01 100.843 1465C112.664 1478.61 133.952 1495.08 160.932 1500.05C189.88 1505.37 221.913 1496.77 250.793 1465.36C250.99 1465.15 251.183 1464.93 251.373 1464.71C258.525 1456.41 271.552 1446.72 286.169 1444.03C298.924 1441.69 315.918 1444.01 335.288 1465C347.109 1478.61 368.398 1495.08 395.377 1500.05C424.365 1505.38 456.446 1496.74 485.357 1465.23C485.548 1465.02 485.735 1464.81 485.916 1464.6C493.089 1456.32 506.064 1446.71 520.613 1444.03C533.368 1441.69 550.362 1444.01 569.732 1465C581.554 1478.61 602.842 1495.08 629.821 1500.05C658.768 1505.37 690.799 1496.77 719.678 1465.37C719.876 1465.15 720.071 1464.93 720.263 1464.71C727.415 1456.41 740.442 1446.72 755.059 1444.03C767.814 1441.69 784.808 1444.01 804.178 1465C815.999 1478.61 837.287 1495.08 864.267 1500.05C893.195 1505.37 925.202 1496.78 954.067 1465.43C954.285 1465.19 954.499 1464.96 954.709 1464.71C961.861 1456.41 974.888 1446.72 989.505 1444.03C1002.26 1441.69 1019.25 1444.01 1038.62 1465C1050.45 1478.61 1071.73 1495.08 1098.71 1500.05C1127.7 1505.38 1159.78 1496.74 1188.69 1465.23C1188.88 1465.02 1189.07 1464.81 1189.25 1464.6C1196.42 1456.32 1209.4 1446.71 1223.95 1444.03C1236.7 1441.69 1253.7 1444.01 1273.07 1465C1284.89 1478.61 1306.18 1495.08 1333.16 1500.05C1362.15 1505.38 1394.23 1496.74 1423.14 1465.23C1431.41 1456.22 1430.8 1442.21 1421.79 1433.94C1412.78 1425.67 1398.77 1426.27 1390.5 1435.29C1371.04 1456.49 1353.97 1458.84 1341.17 1456.48C1326.56 1453.79 1313.53 1444.11 1306.38 1435.8C1306.23 1435.63 1306.07 1435.46 1305.92 1435.29C1277 1403.77 1244.92 1395.14 1215.93 1400.47C1188.95 1405.43 1167.65 1421.91 1155.83 1435.52C1136.47 1456.51 1119.48 1458.83 1106.73 1456.48C1092.11 1453.79 1079.08 1444.11 1071.93 1435.8C1071.78 1435.63 1071.63 1435.46 1071.47 1435.29C1042.56 1403.77 1010.48 1395.14 981.49 1400.47C954.529 1405.43 933.25 1421.88 921.424 1435.49C902.044 1456.51 885.041 1458.83 872.281 1456.48C857.665 1453.79 844.637 1444.11 837.486 1435.8C837.335 1435.63 837.181 1435.46 837.025 1435.29C808.113 1403.77 776.033 1395.14 747.044 1400.47C720.071 1405.43 698.786 1421.9 686.963 1435.5C667.59 1456.51 650.593 1458.83 637.836 1456.48C623.219 1453.79 610.192 1444.11 603.04 1435.8C602.889 1435.63 602.736 1435.46 602.579 1435.29C573.668 1403.77 541.587 1395.14 512.599 1400.47C485.613 1405.43 464.32 1421.91 452.501 1435.52C433.135 1456.51 416.144 1458.83 403.391 1456.48C388.775 1453.79 375.748 1444.11 368.596 1435.8C368.445 1435.63 368.291 1435.46 368.135 1435.29C339.223 1403.77 307.143 1395.14 278.154 1400.47C251.18 1405.43 229.895 1421.9 218.072 1435.5C198.699 1456.51 181.703 1458.83 168.946 1456.48C154.33 1453.79 141.302 1444.11 134.151 1435.8C134 1435.63 133.846 1435.46 133.69 1435.29C104.778 1403.77 72.6975 1395.14 43.7092 1400.47C16.5366 1405.47 -4.86338 1422.14 -16.6325 1435.8C-24.6155 1445.07 -23.5741 1459.06 -14.3066 1467.04C-5.03902 1475.02 8.94523 1473.98 16.9281 1464.71Z" fill="#E2F163"/>
</g>
<g filter="url(#filter17_ii_656_281)">
<path fill-rule="evenodd" clip-rule="evenodd" d="M1189.28 1552.57C1196.46 1544.3 1209.42 1534.71 1223.95 1532.03C1236.7 1529.69 1253.7 1532.01 1273.07 1553C1284.89 1566.61 1306.18 1583.08 1333.16 1588.05C1362.15 1593.38 1394.23 1584.74 1423.14 1553.23C1431.41 1544.22 1430.8 1530.21 1421.79 1521.94C1412.78 1513.67 1398.77 1514.27 1390.5 1523.29C1371.04 1544.49 1353.97 1546.84 1341.17 1544.48C1326.55 1541.79 1313.53 1532.11 1306.38 1523.8C1306.22 1523.63 1306.07 1523.46 1305.91 1523.29C1277 1491.77 1244.92 1483.14 1215.93 1488.47C1188.94 1493.44 1167.64 1509.92 1155.82 1523.54C1136.46 1544.51 1119.48 1546.83 1106.73 1544.48C1092.11 1541.79 1079.08 1532.11 1071.93 1523.8C1071.78 1523.63 1071.63 1523.46 1071.47 1523.29C1042.56 1491.77 1010.48 1483.14 981.49 1488.47C954.529 1493.43 933.25 1509.88 921.424 1523.49C902.044 1544.51 885.041 1546.83 872.281 1544.48C857.665 1541.79 844.637 1532.11 837.486 1523.8C837.335 1523.63 837.181 1523.46 837.025 1523.29C808.113 1491.77 776.033 1483.14 747.044 1488.47C720.071 1493.43 698.786 1509.9 686.963 1523.5C667.59 1544.51 650.593 1546.83 637.836 1544.48C623.219 1541.79 610.192 1532.11 603.04 1523.8C602.889 1523.63 602.736 1523.46 602.579 1523.29C573.668 1491.77 541.587 1483.14 512.599 1488.47C485.613 1493.43 464.32 1509.91 452.501 1523.52C433.135 1544.51 416.144 1546.83 403.391 1544.48C388.775 1541.79 375.748 1532.11 368.596 1523.8C368.445 1523.63 368.291 1523.46 368.135 1523.29C339.223 1491.77 307.143 1483.14 278.154 1488.47C251.18 1493.43 229.895 1509.9 218.072 1523.5C198.699 1544.51 181.703 1546.83 168.946 1544.48C154.33 1541.79 141.302 1532.11 134.151 1523.8C134 1523.63 133.846 1523.46 133.69 1523.29C104.778 1491.77 72.6975 1483.14 43.7092 1488.47C16.5366 1493.47 -4.86338 1510.14 -16.6325 1523.8C-24.6155 1533.07 -23.5741 1547.06 -14.3066 1555.04C-5.03902 1563.02 8.94523 1561.98 16.9281 1552.71C24.0799 1544.41 37.1072 1534.72 51.7236 1532.03C64.4786 1529.69 81.4728 1532.01 100.843 1553C112.664 1566.61 133.952 1583.08 160.932 1588.05C189.88 1593.37 221.913 1584.77 250.793 1553.36C250.99 1553.15 251.183 1552.93 251.373 1552.71C258.525 1544.41 271.552 1534.72 286.169 1532.03C298.924 1529.69 315.918 1532.01 335.288 1553C347.109 1566.61 368.398 1583.08 395.377 1588.05C424.365 1593.38 456.446 1584.74 485.357 1553.23C485.548 1553.02 485.735 1552.81 485.916 1552.6C493.089 1544.32 506.064 1534.71 520.613 1532.03C533.368 1529.69 550.362 1532.01 569.732 1553C581.554 1566.61 602.842 1583.08 629.821 1588.05C658.768 1593.37 690.799 1584.77 719.678 1553.37C719.876 1553.15 720.071 1552.94 720.263 1552.71C727.415 1544.41 740.442 1534.72 755.059 1532.03C767.814 1529.69 784.808 1532.01 804.178 1553C815.999 1566.61 837.287 1583.08 864.267 1588.05C893.195 1593.37 925.202 1584.78 954.067 1553.43C954.285 1553.19 954.499 1552.96 954.709 1552.71C961.861 1544.41 974.888 1534.72 989.505 1532.03C1002.26 1529.69 1019.25 1532.01 1038.62 1553C1050.45 1566.61 1071.73 1583.08 1098.71 1588.05C1127.7 1593.38 1159.78 1584.74 1188.69 1553.23C1188.89 1553.01 1189.09 1552.79 1189.28 1552.57Z" fill="#E2F163"/>
</g>
<path d="M1430.79 0H-16.7897C-19.6673 0 -22 2.3328 -22 5.21036V1522.79C-22 1525.67 -19.6672 1528 -16.7897 1528H1430.17C1433.04 1528 1435.38 1525.67 1435.38 1522.79L1436 5.21242C1436 2.33402 1433.67 0 1430.79 0Z" fill="#101010" fill-opacity="0.97"/>
</g>
<defs>
<filter id="filter0_ii_656_281" x="-22" y="-13" width="1450.97" height="102.766" filterUnits="userSpaceOnUse" color-interpolation-filters="sRGB">
<feFlood flood-opacity="0" result="BackgroundImageFix"/>
<feBlend mode="normal" in="SourceGraphic" in2="BackgroundImageFix" result="shape"/>
<feColorMatrix in="SourceAlpha" type="matrix" values="0 0 0 0 0 0 0 0 0 0 0 0 0 0 0 0 0 0 127 0" result="hardAlpha"/>
<feOffset dy="0.249473"/>
<feGaussianBlur stdDeviation="3.85243"/>
<feComposite in2="hardAlpha" operator="arithmetic" k2="-1" k3="1"/>
<feColorMatrix type="matrix" values="0 0 0 0 0 0 0 0 0 0 0 0 0 0 0 0 0 0 0.1 0"/>
<feBlend mode="normal" in2="shape" result="effect1_innerShadow_656_281"/>
<feColorMatrix in="SourceAlpha" type="matrix" values="0 0 0 0 0 0 0 0 0 0 0 0 0 0 0 0 0 0 127 0" result="hardAlpha"/>
<feOffset dy="0.249473"/>
<feGaussianBlur stdDeviation="6.29459"/>
<feComposite in2="hardAlpha" operator="arithmetic" k2="-1" k3="1"/>
<feColorMatrix type="matrix" values="0 0 0 0 0 0 0 0 0 0 0 0 0 0 0 0 0 0 0.1 0"/>
<feBlend mode="normal" in2="effect1_innerShadow_656_281" result="effect2_innerShadow_656_281"/>
</filter>
<filter id="filter1_ii_656_281" x="-22" y="75" width="1450.97" height="102.766" filterUnits="userSpaceOnUse" color-interpolation-filters="sRGB">
<feFlood flood-opacity="0" result="BackgroundImageFix"/>
<feBlend mode="normal" in="SourceGraphic" in2="BackgroundImageFix" result="shape"/>
<feColorMatrix in="SourceAlpha" type="matrix" values="0 0 0 0 0 0 0 0 0 0 0 0 0 0 0 0 0 0 127 0" result="hardAlpha"/>
<feOffset dy="0.249473"/>
<feGaussianBlur stdDeviation="3.85243"/>
<feComposite in2="hardAlpha" operator="arithmetic" k2="-1" k3="1"/>
<feColorMatrix type="matrix" values="0 0 0 0 0 0 0 0 0 0 0 0 0 0 0 0 0 0 0.1 0"/>
<feBlend mode="normal" in2="shape" result="effect1_innerShadow_656_281"/>
<feColorMatrix in="SourceAlpha" type="matrix" values="0 0 0 0 0 0 0 0 0 0 0 0 0 0 0 0 0 0 127 0" result="hardAlpha"/>
<feOffset dy="0.249473"/>
<feGaussianBlur stdDeviation="6.29459"/>
<feComposite in2="hardAlpha" operator="arithmetic" k2="-1" k3="1"/>
<feColorMatrix type="matrix" values="0 0 0 0 0 0 0 0 0 0 0 0 0 0 0 0 0 0 0.1 0"/>
<feBlend mode="normal" in2="effect1_innerShadow_656_281" result="effect2_innerShadow_656_281"/>
</filter>
<filter id="filter2_ii_656_281" x="-22" y="163" width="1450.97" height="102.766" filterUnits="userSpaceOnUse" color-interpolation-filters="sRGB">
<feFlood flood-opacity="0" result="BackgroundImageFix"/>
<feBlend mode="normal" in="SourceGraphic" in2="BackgroundImageFix" result="shape"/>
<feColorMatrix in="SourceAlpha" type="matrix" values="0 0 0 0 0 0 0 0 0 0 0 0 0 0 0 0 0 0 127 0" result="hardAlpha"/>
<feOffset dy="0.249473"/>
<feGaussianBlur stdDeviation="3.85243"/>
<feComposite in2="hardAlpha" operator="arithmetic" k2="-1" k3="1"/>
<feColorMatrix type="matrix" values="0 0 0 0 0 0 0 0 0 0 0 0 0 0 0 0 0 0 0.1 0"/>
<feBlend mode="normal" in2="shape" result="effect1_innerShadow_656_281"/>
<feColorMatrix in="SourceAlpha" type="matrix" values="0 0 0 0 0 0 0 0 0 0 0 0 0 0 0 0 0 0 127 0" result="hardAlpha"/>
<feOffset dy="0.249473"/>
<feGaussianBlur stdDeviation="6.29459"/>
<feComposite in2="hardAlpha" operator="arithmetic" k2="-1" k3="1"/>
<feColorMatrix type="matrix" values="0 0 0 0 0 0 0 0 0 0 0 0 0 0 0 0 0 0 0.1 0"/>
<feBlend mode="normal" in2="effect1_innerShadow_656_281" result="effect2_innerShadow_656_281"/>
</filter>
<filter id="filter3_ii_656_281" x="-22" y="251" width="1450.97" height="102.766" filterUnits="userSpaceOnUse" color-interpolation-filters="sRGB">
<feFlood flood-opacity="0" result="BackgroundImageFix"/>
<feBlend mode="normal" in="SourceGraphic" in2="BackgroundImageFix" result="shape"/>
<feColorMatrix in="SourceAlpha" type="matrix" values="0 0 0 0 0 0 0 0 0 0 0 0 0 0 0 0 0 0 127 0" result="hardAlpha"/>
<feOffset dy="0.249473"/>
<feGaussianBlur stdDeviation="3.85243"/>
<feComposite in2="hardAlpha" operator="arithmetic" k2="-1" k3="1"/>
<feColorMatrix type="matrix" values="0 0 0 0 0 0 0 0 0 0 0 0 0 0 0 0 0 0 0.1 0"/>
<feBlend mode="normal" in2="shape" result="effect1_innerShadow_656_281"/>
<feColorMatrix in="SourceAlpha" type="matrix" values="0 0 0 0 0 0 0 0 0 0 0 0 0 0 0 0 0 0 127 0" result="hardAlpha"/>
<feOffset dy="0.249473"/>
<feGaussianBlur stdDeviation="6.29459"/>
<feComposite in2="hardAlpha" operator="arithmetic" k2="-1" k3="1"/>
<feColorMatrix type="matrix" values="0 0 0 0 0 0 0 0 0 0 0 0 0 0 0 0 0 0 0.1 0"/>
<feBlend mode="normal" in2="effect1_innerShadow_656_281" result="effect2_innerShadow_656_281"/>
</filter>
<filter id="filter4_ii_656_281" x="-22" y="339" width="1450.97" height="102.766" filterUnits="userSpaceOnUse" color-interpolation-filters="sRGB">
<feFlood flood-opacity="0" result="BackgroundImageFix"/>
<feBlend mode="normal" in="SourceGraphic" in2="BackgroundImageFix" result="shape"/>
<feColorMatrix in="SourceAlpha" type="matrix" values="0 0 0 0 0 0 0 0 0 0 0 0 0 0 0 0 0 0 127 0" result="hardAlpha"/>
<feOffset dy="0.249473"/>
<feGaussianBlur stdDeviation="3.85243"/>
<feComposite in2="hardAlpha" operator="arithmetic" k2="-1" k3="1"/>
<feColorMatrix type="matrix" values="0 0 0 0 0 0 0 0 0 0 0 0 0 0 0 0 0 0 0.1 0"/>
<feBlend mode="normal" in2="shape" result="effect1_innerShadow_656_281"/>
<feColorMatrix in="SourceAlpha" type="matrix" values="0 0 0 0 0 0 0 0 0 0 0 0 0 0 0 0 0 0 127 0" result="hardAlpha"/>
<feOffset dy="0.249473"/>
<feGaussianBlur stdDeviation="6.29459"/>
<feComposite in2="hardAlpha" operator="arithmetic" k2="-1" k3="1"/>
<feColorMatrix type="matrix" values="0 0 0 0 0 0 0 0 0 0 0 0 0 0 0 0 0 0 0.1 0"/>
<feBlend mode="normal" in2="effect1_innerShadow_656_281" result="effect2_innerShadow_656_281"/>
</filter>
<filter id="filter5_ii_656_281" x="-22" y="427" width="1450.97" height="102.766" filterUnits="userSpaceOnUse" color-interpolation-filters="sRGB">
<feFlood flood-opacity="0" result="BackgroundImageFix"/>
<feBlend mode="normal" in="SourceGraphic" in2="BackgroundImageFix" result="shape"/>
<feColorMatrix in="SourceAlpha" type="matrix" values="0 0 0 0 0 0 0 0 0 0 0 0 0 0 0 0 0 0 127 0" result="hardAlpha"/>
<feOffset dy="0.249473"/>
<feGaussianBlur stdDeviation="3.85243"/>
<feComposite in2="hardAlpha" operator="arithmetic" k2="-1" k3="1"/>
<feColorMatrix type="matrix" values="0 0 0 0 0 0 0 0 0 0 0 0 0 0 0 0 0 0 0.1 0"/>
<feBlend mode="normal" in2="shape" result="effect1_innerShadow_656_281"/>
<feColorMatrix in="SourceAlpha" type="matrix" values="0 0 0 0 0 0 0 0 0 0 0 0 0 0 0 0 0 0 127 0" result="hardAlpha"/>
<feOffset dy="0.249473"/>
<feGaussianBlur stdDeviation="6.29459"/>
<feComposite in2="hardAlpha" operator="arithmetic" k2="-1" k3="1"/>
<feColorMatrix type="matrix" values="0 0 0 0 0 0 0 0 0 0 0 0 0 0 0 0 0 0 0.1 0"/>
<feBlend mode="normal" in2="effect1_innerShadow_656_281" result="effect2_innerShadow_656_281"/>
</filter>
<filter id="filter6_ii_656_281" x="-22" y="515" width="1450.97" height="102.766" filterUnits="userSpaceOnUse" color-interpolation-filters="sRGB">
<feFlood flood-opacity="0" result="BackgroundImageFix"/>
<feBlend mode="normal" in="SourceGraphic" in2="BackgroundImageFix" result="shape"/>
<feColorMatrix in="SourceAlpha" type="matrix" values="0 0 0 0 0 0 0 0 0 0 0 0 0 0 0 0 0 0 127 0" result="hardAlpha"/>
<feOffset dy="0.249473"/>
<feGaussianBlur stdDeviation="3.85243"/>
<feComposite in2="hardAlpha" operator="arithmetic" k2="-1" k3="1"/>
<feColorMatrix type="matrix" values="0 0 0 0 0 0 0 0 0 0 0 0 0 0 0 0 0 0 0.1 0"/>
<feBlend mode="normal" in2="shape" result="effect1_innerShadow_656_281"/>
<feColorMatrix in="SourceAlpha" type="matrix" values="0 0 0 0 0 0 0 0 0 0 0 0 0 0 0 0 0 0 127 0" result="hardAlpha"/>
<feOffset dy="0.249473"/>
<feGaussianBlur stdDeviation="6.29459"/>
<feComposite in2="hardAlpha" operator="arithmetic" k2="-1" k3="1"/>
<feColorMatrix type="matrix" values="0 0 0 0 0 0 0 0 0 0 0 0 0 0 0 0 0 0 0.1 0"/>
<feBlend mode="normal" in2="effect1_innerShadow_656_281" result="effect2_innerShadow_656_281"/>
</filter>
<filter id="filter7_ii_656_281" x="-22" y="603" width="1450.97" height="102.766" filterUnits="userSpaceOnUse" color-interpolation-filters="sRGB">
<feFlood flood-opacity="0" result="BackgroundImageFix"/>
<feBlend mode="normal" in="SourceGraphic" in2="BackgroundImageFix" result="shape"/>
<feColorMatrix in="SourceAlpha" type="matrix" values="0 0 0 0 0 0 0 0 0 0 0 0 0 0 0 0 0 0 127 0" result="hardAlpha"/>
<feOffset dy="0.249473"/>
<feGaussianBlur stdDeviation="3.85243"/>
<feComposite in2="hardAlpha" operator="arithmetic" k2="-1" k3="1"/>
<feColorMatrix type="matrix" values="0 0 0 0 0 0 0 0 0 0 0 0 0 0 0 0 0 0 0.1 0"/>
<feBlend mode="normal" in2="shape" result="effect1_innerShadow_656_281"/>
<feColorMatrix in="SourceAlpha" type="matrix" values="0 0 0 0 0 0 0 0 0 0 0 0 0 0 0 0 0 0 127 0" result="hardAlpha"/>
<feOffset dy="0.249473"/>
<feGaussianBlur stdDeviation="6.29459"/>
<feComposite in2="hardAlpha" operator="arithmetic" k2="-1" k3="1"/>
<feColorMatrix type="matrix" values="0 0 0 0 0 0 0 0 0 0 0 0 0 0 0 0 0 0 0.1 0"/>
<feBlend mode="normal" in2="effect1_innerShadow_656_281" result="effect2_innerShadow_656_281"/>
</filter>
<filter id="filter8_ii_656_281" x="-22" y="691" width="1450.97" height="102.766" filterUnits="userSpaceOnUse" color-interpolation-filters="sRGB">
<feFlood flood-opacity="0" result="BackgroundImageFix"/>
<feBlend mode="normal" in="SourceGraphic" in2="BackgroundImageFix" result="shape"/>
<feColorMatrix in="SourceAlpha" type="matrix" values="0 0 0 0 0 0 0 0 0 0 0 0 0 0 0 0 0 0 127 0" result="hardAlpha"/>
<feOffset dy="0.249473"/>
<feGaussianBlur stdDeviation="3.85243"/>
<feComposite in2="hardAlpha" operator="arithmetic" k2="-1" k3="1"/>
<feColorMatrix type="matrix" values="0 0 0 0 0 0 0 0 0 0 0 0 0 0 0 0 0 0 0.1 0"/>
<feBlend mode="normal" in2="shape" result="effect1_innerShadow_656_281"/>
<feColorMatrix in="SourceAlpha" type="matrix" values="0 0 0 0 0 0 0 0 0 0 0 0 0 0 0 0 0 0 127 0" result="hardAlpha"/>
<feOffset dy="0.249473"/>
<feGaussianBlur stdDeviation="6.29459"/>
<feComposite in2="hardAlpha" operator="arithmetic" k2="-1" k3="1"/>
<feColorMatrix type="matrix" values="0 0 0 0 0 0 0 0 0 0 0 0 0 0 0 0 0 0 0.1 0"/>
<feBlend mode="normal" in2="effect1_innerShadow_656_281" result="effect2_innerShadow_656_281"/>
</filter>
<filter id="filter9_ii_656_281" x="-22" y="779" width="1450.97" height="102.766" filterUnits="userSpaceOnUse" color-interpolation-filters="sRGB">
<feFlood flood-opacity="0" result="BackgroundImageFix"/>
<feBlend mode="normal" in="SourceGraphic" in2="BackgroundImageFix" result="shape"/>
<feColorMatrix in="SourceAlpha" type="matrix" values="0 0 0 0 0 0 0 0 0 0 0 0 0 0 0 0 0 0 127 0" result="hardAlpha"/>
<feOffset dy="0.249473"/>
<feGaussianBlur stdDeviation="3.85243"/>
<feComposite in2="hardAlpha" operator="arithmetic" k2="-1" k3="1"/>
<feColorMatrix type="matrix" values="0 0 0 0 0 0 0 0 0 0 0 0 0 0 0 0 0 0 0.1 0"/>
<feBlend mode="normal" in2="shape" result="effect1_innerShadow_656_281"/>
<feColorMatrix in="SourceAlpha" type="matrix" values="0 0 0 0 0 0 0 0 0 0 0 0 0 0 0 0 0 0 127 0" result="hardAlpha"/>
<feOffset dy="0.249473"/>
<feGaussianBlur stdDeviation="6.29459"/>
<feComposite in2="hardAlpha" operator="arithmetic" k2="-1" k3="1"/>
<feColorMatrix type="matrix" values="0 0 0 0 0 0 0 0 0 0 0 0 0 0 0 0 0 0 0.1 0"/>
<feBlend mode="normal" in2="effect1_innerShadow_656_281" result="effect2_innerShadow_656_281"/>
</filter>
<filter id="filter10_ii_656_281" x="-22" y="871" width="1450.97" height="102.766" filterUnits="userSpaceOnUse" color-interpolation-filters="sRGB">
<feFlood flood-opacity="0" result="BackgroundImageFix"/>
<feBlend mode="normal" in="SourceGraphic" in2="BackgroundImageFix" result="shape"/>
<feColorMatrix in="SourceAlpha" type="matrix" values="0 0 0 0 0 0 0 0 0 0 0 0 0 0 0 0 0 0 127 0" result="hardAlpha"/>
<feOffset dy="0.249473"/>
<feGaussianBlur stdDeviation="3.85243"/>
<feComposite in2="hardAlpha" operator="arithmetic" k2="-1" k3="1"/>
<feColorMatrix type="matrix" values="0 0 0 0 0 0 0 0 0 0 0 0 0 0 0 0 0 0 0.1 0"/>
<feBlend mode="normal" in2="shape" result="effect1_innerShadow_656_281"/>
<feColorMatrix in="SourceAlpha" type="matrix" values="0 0 0 0 0 0 0 0 0 0 0 0 0 0 0 0 0 0 127 0" result="hardAlpha"/>
<feOffset dy="0.249473"/>
<feGaussianBlur stdDeviation="6.29459"/>
<feComposite in2="hardAlpha" operator="arithmetic" k2="-1" k3="1"/>
<feColorMatrix type="matrix" values="0 0 0 0 0 0 0 0 0 0 0 0 0 0 0 0 0 0 0.1 0"/>
<feBlend mode="normal" in2="effect1_innerShadow_656_281" result="effect2_innerShadow_656_281"/>
</filter>
<filter id="filter11_ii_656_281" x="-22" y="959" width="1450.97" height="102.766" filterUnits="userSpaceOnUse" color-interpolation-filters="sRGB">
<feFlood flood-opacity="0" result="BackgroundImageFix"/>
<feBlend mode="normal" in="SourceGraphic" in2="BackgroundImageFix" result="shape"/>
<feColorMatrix in="SourceAlpha" type="matrix" values="0 0 0 0 0 0 0 0 0 0 0 0 0 0 0 0 0 0 127 0" result="hardAlpha"/>
<feOffset dy="0.249473"/>
<feGaussianBlur stdDeviation="3.85243"/>
<feComposite in2="hardAlpha" operator="arithmetic" k2="-1" k3="1"/>
<feColorMatrix type="matrix" values="0 0 0 0 0 0 0 0 0 0 0 0 0 0 0 0 0 0 0.1 0"/>
<feBlend mode="normal" in2="shape" result="effect1_innerShadow_656_281"/>
<feColorMatrix in="SourceAlpha" type="matrix" values="0 0 0 0 0 0 0 0 0 0 0 0 0 0 0 0 0 0 127 0" result="hardAlpha"/>
<feOffset dy="0.249473"/>
<feGaussianBlur stdDeviation="6.29459"/>
<feComposite in2="hardAlpha" operator="arithmetic" k2="-1" k3="1"/>
<feColorMatrix type="matrix" values="0 0 0 0 0 0 0 0 0 0 0 0 0 0 0 0 0 0 0.1 0"/>
<feBlend mode="normal" in2="effect1_innerShadow_656_281" result="effect2_innerShadow_656_281"/>
</filter>
<filter id="filter12_ii_656_281" x="-22" y="1047" width="1450.97" height="102.766" filterUnits="userSpaceOnUse" color-interpolation-filters="sRGB">
<feFlood flood-opacity="0" result="BackgroundImageFix"/>
<feBlend mode="normal" in="SourceGraphic" in2="BackgroundImageFix" result="shape"/>
<feColorMatrix in="SourceAlpha" type="matrix" values="0 0 0 0 0 0 0 0 0 0 0 0 0 0 0 0 0 0 127 0" result="hardAlpha"/>
<feOffset dy="0.249473"/>
<feGaussianBlur stdDeviation="3.85243"/>
<feComposite in2="hardAlpha" operator="arithmetic" k2="-1" k3="1"/>
<feColorMatrix type="matrix" values="0 0 0 0 0 0 0 0 0 0 0 0 0 0 0 0 0 0 0.1 0"/>
<feBlend mode="normal" in2="shape" result="effect1_innerShadow_656_281"/>
<feColorMatrix in="SourceAlpha" type="matrix" values="0 0 0 0 0 0 0 0 0 0 0 0 0 0 0 0 0 0 127 0" result="hardAlpha"/>
<feOffset dy="0.249473"/>
<feGaussianBlur stdDeviation="6.29459"/>
<feComposite in2="hardAlpha" operator="arithmetic" k2="-1" k3="1"/>
<feColorMatrix type="matrix" values="0 0 0 0 0 0 0 0 0 0 0 0 0 0 0 0 0 0 0.1 0"/>
<feBlend mode="normal" in2="effect1_innerShadow_656_281" result="effect2_innerShadow_656_281"/>
</filter>
<filter id="filter13_ii_656_281" x="-22" y="1135" width="1450.97" height="102.766" filterUnits="userSpaceOnUse" color-interpolation-filters="sRGB">
<feFlood flood-opacity="0" result="BackgroundImageFix"/>
<feBlend mode="normal" in="SourceGraphic" in2="BackgroundImageFix" result="shape"/>
<feColorMatrix in="SourceAlpha" type="matrix" values="0 0 0 0 0 0 0 0 0 0 0 0 0 0 0 0 0 0 127 0" result="hardAlpha"/>
<feOffset dy="0.249473"/>
<feGaussianBlur stdDeviation="3.85243"/>
<feComposite in2="hardAlpha" operator="arithmetic" k2="-1" k3="1"/>
<feColorMatrix type="matrix" values="0 0 0 0 0 0 0 0 0 0 0 0 0 0 0 0 0 0 0.1 0"/>
<feBlend mode="normal" in2="shape" result="effect1_innerShadow_656_281"/>
<feColorMatrix in="SourceAlpha" type="matrix" values="0 0 0 0 0 0 0 0 0 0 0 0 0 0 0 0 0 0 127 0" result="hardAlpha"/>
<feOffset dy="0.249473"/>
<feGaussianBlur stdDeviation="6.29459"/>
<feComposite in2="hardAlpha" operator="arithmetic" k2="-1" k3="1"/>
<feColorMatrix type="matrix" values="0 0 0 0 0 0 0 0 0 0 0 0 0 0 0 0 0 0 0.1 0"/>
<feBlend mode="normal" in2="effect1_innerShadow_656_281" result="effect2_innerShadow_656_281"/>
</filter>
<filter id="filter14_ii_656_281" x="-22" y="1223" width="1450.97" height="102.766" filterUnits="userSpaceOnUse" color-interpolation-filters="sRGB">
<feFlood flood-opacity="0" result="BackgroundImageFix"/>
<feBlend mode="normal" in="SourceGraphic" in2="BackgroundImageFix" result="shape"/>
<feColorMatrix in="SourceAlpha" type="matrix" values="0 0 0 0 0 0 0 0 0 0 0 0 0 0 0 0 0 0 127 0" result="hardAlpha"/>
<feOffset dy="0.249473"/>
<feGaussianBlur stdDeviation="3.85243"/>
<feComposite in2="hardAlpha" operator="arithmetic" k2="-1" k3="1"/>
<feColorMatrix type="matrix" values="0 0 0 0 0 0 0 0 0 0 0 0 0 0 0 0 0 0 0.1 0"/>
<feBlend mode="normal" in2="shape" result="effect1_innerShadow_656_281"/>
<feColorMatrix in="SourceAlpha" type="matrix" values="0 0 0 0 0 0 0 0 0 0 0 0 0 0 0 0 0 0 127 0" result="hardAlpha"/>
<feOffset dy="0.249473"/>
<feGaussianBlur stdDeviation="6.29459"/>
<feComposite in2="hardAlpha" operator="arithmetic" k2="-1" k3="1"/>
<feColorMatrix type="matrix" values="0 0 0 0 0 0 0 0 0 0 0 0 0 0 0 0 0 0 0.1 0"/>
<feBlend mode="normal" in2="effect1_innerShadow_656_281" result="effect2_innerShadow_656_281"/>
</filter>
<filter id="filter15_ii_656_281" x="-22" y="1311" width="1450.97" height="102.766" filterUnits="userSpaceOnUse" color-interpolation-filters="sRGB">
<feFlood flood-opacity="0" result="BackgroundImageFix"/>
<feBlend mode="normal" in="SourceGraphic" in2="BackgroundImageFix" result="shape"/>
<feColorMatrix in="SourceAlpha" type="matrix" values="0 0 0 0 0 0 0 0 0 0 0 0 0 0 0 0 0 0 127 0" result="hardAlpha"/>
<feOffset dy="0.249473"/>
<feGaussianBlur stdDeviation="3.85243"/>
<feComposite in2="hardAlpha" operator="arithmetic" k2="-1" k3="1"/>
<feColorMatrix type="matrix" values="0 0 0 0 0 0 0 0 0 0 0 0 0 0 0 0 0 0 0.1 0"/>
<feBlend mode="normal" in2="shape" result="effect1_innerShadow_656_281"/>
<feColorMatrix in="SourceAlpha" type="matrix" values="0 0 0 0 0 0 0 0 0 0 0 0 0 0 0 0 0 0 127 0" result="hardAlpha"/>
<feOffset dy="0.249473"/>
<feGaussianBlur stdDeviation="6.29459"/>
<feComposite in2="hardAlpha" operator="arithmetic" k2="-1" k3="1"/>
<feColorMatrix type="matrix" values="0 0 0 0 0 0 0 0 0 0 0 0 0 0 0 0 0 0 0.1 0"/>
<feBlend mode="normal" in2="effect1_innerShadow_656_281" result="effect2_innerShadow_656_281"/>
</filter>
<filter id="filter16_ii_656_281" x="-22" y="1399" width="1450.97" height="102.766" filterUnits="userSpaceOnUse" color-interpolation-filters="sRGB">
<feFlood flood-opacity="0" result="BackgroundImageFix"/>
<feBlend mode="normal" in="SourceGraphic" in2="BackgroundImageFix" result="shape"/>
<feColorMatrix in="SourceAlpha" type="matrix" values="0 0 0 0 0 0 0 0 0 0 0 0 0 0 0 0 0 0 127 0" result="hardAlpha"/>
<feOffset dy="0.249473"/>
<feGaussianBlur stdDeviation="3.85243"/>
<feComposite in2="hardAlpha" operator="arithmetic" k2="-1" k3="1"/>
<feColorMatrix type="matrix" values="0 0 0 0 0 0 0 0 0 0 0 0 0 0 0 0 0 0 0.1 0"/>
<feBlend mode="normal" in2="shape" result="effect1_innerShadow_656_281"/>
<feColorMatrix in="SourceAlpha" type="matrix" values="0 0 0 0 0 0 0 0 0 0 0 0 0 0 0 0 0 0 127 0" result="hardAlpha"/>
<feOffset dy="0.249473"/>
<feGaussianBlur stdDeviation="6.29459"/>
<feComposite in2="hardAlpha" operator="arithmetic" k2="-1" k3="1"/>
<feColorMatrix type="matrix" values="0 0 0 0 0 0 0 0 0 0 0 0 0 0 0 0 0 0 0.1 0"/>
<feBlend mode="normal" in2="effect1_innerShadow_656_281" result="effect2_innerShadow_656_281"/>
</filter>
<filter id="filter17_ii_656_281" x="-22" y="1487" width="1450.97" height="102.766" filterUnits="userSpaceOnUse" color-interpolation-filters="sRGB">
<feFlood flood-opacity="0" result="BackgroundImageFix"/>
<feBlend mode="normal" in="SourceGraphic" in2="BackgroundImageFix" result="shape"/>
<feColorMatrix in="SourceAlpha" type="matrix" values="0 0 0 0 0 0 0 0 0 0 0 0 0 0 0 0 0 0 127 0" result="hardAlpha"/>
<feOffset dy="0.249473"/>
<feGaussianBlur stdDeviation="3.85243"/>
<feComposite in2="hardAlpha" operator="arithmetic" k2="-1" k3="1"/>
<feColorMatrix type="matrix" values="0 0 0 0 0 0 0 0 0 0 0 0 0 0 0 0 0 0 0.1 0"/>
<feBlend mode="normal" in2="shape" result="effect1_innerShadow_656_281"/>
<feColorMatrix in="SourceAlpha" type="matrix" values="0 0 0 0 0 0 0 0 0 0 0 0 0 0 0 0 0 0 127 0" result="hardAlpha"/>
<feOffset dy="0.249473"/>
<feGaussianBlur stdDeviation="6.29459"/>
<feComposite in2="hardAlpha" operator="arithmetic" k2="-1" k3="1"/>
<feColorMatrix type="matrix" values="0 0 0 0 0 0 0 0 0 0 0 0 0 0 0 0 0 0 0.1 0"/>
<feBlend mode="normal" in2="effect1_innerShadow_656_281" result="effect2_innerShadow_656_281"/>
</filter>
<clipPath id="clip0_656_281">
<rect width="1407" height="1528" fill="white"/>
</clipPath>
</defs>
</svg>
