<svg width="770" height="273" viewBox="0 0 770 273" fill="none" xmlns="http://www.w3.org/2000/svg"><path fill-rule="evenodd" clip-rule="evenodd" d="M588.271.945c-3.401 1.174-4.589 2.52-5.57 6.313-.447 1.725-1.617 5.786-2.601 9.024l-1.788 5.888-2.413.255c-1.327.14-6.756.596-12.064 1.01-18.421 1.442-34.276 3.108-36.854 3.874-8.981 2.67-4.628 8.903 6.219 8.903 2.031 0 10.732-.643 19.335-1.427 25.234-2.302 22.774-2.176 22.47-1.152-.943 3.17-2.369 9.592-3.467 15.608-2.081 11.405-7.981 24.14-18.107 39.088-6.068 8.955-10.992 14.1-15.935 16.648-2.199 1.134-2.218 1.135-3.619.217-2.652-1.738-6.383-5.845-7.905-8.7-3.261-6.117-5.038-18.153-4.007-27.132.522-4.55.174-5.442-2.755-7.057-1.781-.983-2.979-1.212-7.262-1.388-8.491-.35-12.096 1.304-13.467 6.179-1.226 4.358-5.438 14.345-7.836 18.579-5.017 8.856-13.359 18.404-18.925 21.659-2.254 1.319-2.425 1.347-3.906.64-.853-.406-2.852-1.944-4.442-3.416-6.628-6.136-9.597-16.174-10.154-34.322l-.281-9.165-1.426-1.333c-2.253-2.104-5.928-2.93-11.899-2.675-5.801.248-8.309 1.189-10.339 3.876-.652.865-3.136 5.156-5.518 9.535-2.383 4.38-6.328 11.328-8.768 15.442-4.517 7.614-21.351 33.363-21.63 33.084-.084-.084-.876-3.165-1.759-6.847-2.426-10.107-5.156-20.29-9.235-34.44-2.026-7.034-3.798-14.097-3.937-15.697l-.252-2.907 3.46-.594c5.43-.93 9.201-3.405 9.201-6.036 0-1.83-3.542-4.543-7.598-5.82-14.191-4.471-44.149-4.86-63.497-.826-14.707 3.067-26.216 7.962-33.958 14.442-1.805 1.511-6.706 4.694-10.89 7.073-4.183 2.38-10.915 6.684-14.959 9.566-10.376 7.395-26.994 18.394-30.051 19.89l-.237.115a4.46 4.46 0 0 1-4.49-.332c-3.292-2.264-7.249-6.902-11.782-13.808l-6.334-9.651c-4.617-7.041-12.319-13.867-18.951-16.795-13.038-5.758-32.284-5.89-53.519-.37-24.218 6.296-50.55 18.988-89.974 43.37-14.68 9.078-13.733 8.647-19.543 8.892-5.792.244-8.635 1.318-9.883 3.73-1.039 2.009-.917 3.083.513 4.512 2.242 2.242 5.472 2.991 12.747 2.954 5.968-.029 6.9-.16 11.1-1.552 5.804-1.925 10.689-4.442 20.991-10.819 20.296-12.564 37.128-22.147 50.187-28.573 22.613-11.129 46.002-17.89 56.203-16.246 7.686 1.237 12.428 5.538 21.858 19.824 9.731 14.743 13.323 18.585 20.938 22.394 7.689 3.846 19.038 4.845 28.316 2.491 6.577-1.668 11.356-4.185 24.357-12.829 6.289-4.18 11.503-7.54 11.587-7.464s.455 1.578.823 3.337c.932 4.458 2.796 7.6 6.593 11.116 7.219 6.683 18.247 9.866 32.209 9.296 17.4-.71 32.921-7.033 44.559-18.148 2.061-1.97 3.821-3.494 3.911-3.388.969 1.148 13.592 54.195 13.902 58.425.049.679-1.44 3.504-3.774 7.155-10.974 17.166-15.823 26.544-23.176 44.825-6.23 15.489-7.944 22.912-7.929 34.337.025 18.081 7.093 30.398 20.587 35.882 6.529 2.652 16.245 3.455 23.756 1.962 4.523-.899 10.697-3.822 13.75-6.509 3.083-2.713 7.632-9.665 9.506-14.523 6.795-17.62 5.471-35.318-6.893-92.113l-2.049-9.41 3.929-6.515a2044 2044 0 0 0 7.918-13.271c2.193-3.715 7.725-12.402 12.292-19.302s8.577-13.063 8.911-13.693c.591-1.112.642-1.064 1.735 1.624 4.87 11.983 17.801 20.698 31.7 21.366 13.608.653 25.756-4.475 35.262-14.885l2.991-3.275 2.172 2.723c4.275 5.36 10.775 9.557 17.855 11.527 4.739 1.318 16.7 1.191 21.956-.233 7.951-2.155 15.237-6.692 21.144-13.164 1.763-1.931 3.28-3.416 3.371-3.3s.728 1.188 1.415 2.382c2.663 4.628 7.309 8.288 13.341 10.512 3.749 1.381 12.146 1.974 16.465 1.163 6.76-1.27 10.654-3.553 17.704-10.381l4.916-4.761.542 2.095c.919 3.553 1.061 3.967 2.051 5.957 4.644 9.33 15.367 14.735 29.176 14.707 13.111-.026 24.749-5.548 35.497-16.843l4.135-4.346.329 2.035c.747 4.618 3.802 8.958 8.353 11.867 7.053 4.509 20.336 5.972 33.383 3.678 12.48-2.194 18.991-5.571 24.833-12.881 2.855-3.572 6.271-9.975 6.821-12.783.687-3.51-4.383-5.687-12.537-5.383-3.991.15-5.324.401-7.295 1.38-2.258 1.12-2.51 1.438-3.992 5.012-1.857 4.477-4.998 9.059-8.054 11.75-2.317 2.039-5.466 3.168-10.488 3.759-2.367.279-2.954.177-4.233-.734-1.706-1.214-3.105-3.737-3.622-6.526-.196-1.062-.529-5.73-.739-10.376-.451-9.93-1.075-12.238-4.105-15.172-2.465-2.389-5.637-3.63-10.201-3.99l-3.448-.272 1.639-1.64c4.627-4.626-.236-9.993-11.835-13.06-6.332-1.675-18.171-2.068-25.879-.859-9.207 1.444-18.467 4.78-24.431 8.799-1.147.773-3.172 1.804-4.499 2.29-3.974 1.456-9.467 4.36-12.546 6.633-2.791 2.06-9.515 8.945-21.075 21.578-3.018 3.297-5.741 6.08-6.052 6.183-.914.305-3.43-4.644-4.352-8.56-1.157-4.915-1.037-16.976.268-26.832.775-5.853 1.434-8.657 3.348-14.235 1.311-3.821 3.103-9.662 3.982-12.98s1.726-6.172 1.882-6.345c.276-.305 26.981-1.85 48.781-2.823 47.068-2.1 47.809-2.155 51.118-3.843 2.353-1.201 3.032-2.087 2.843-3.713-.201-1.736-2.51-3.3-6.042-4.09-2.138-.478-5.08-.482-14.326-.02-6.4.319-19.454.91-29.009 1.315s-24.858 1.15-34.006 1.656c-9.149.507-16.731.826-16.848.708-.118-.118.389-3.577 1.126-7.687s1.209-7.993 1.049-8.628C605.475.66 594.693-1.273 588.271.945M335.582 57.978c-8.003 1.15-21.592 5.195-28.921 8.607-3.555 1.655-4.036 2.051-5.534 4.561-5.753 9.64-4.747 21.483 2.256 26.567 4.36 3.166 8.974 3.425 16.527.929 10.011-3.309 19.743-11.404 27.481-22.86 5.044-7.466 7.49-13.14 7.019-16.28l-.309-2.057-7.812.059c-4.296.032-9.115.246-10.707.474m321.991 13.806c-.896.137-2.043 1.082-3.536 2.914-4.351 5.342-6.031 10.227-6.013 17.491.02 8.355 2.423 13.988 7.278 17.059 1.161.735 1.359.709 3.62-.476 7.968-4.178 15.436-12.17 23.985-25.664 2.132-3.366 4.65-6.934 5.595-7.93l1.719-1.809-4.079-.002c-2.243 0-7.336-.43-11.318-.955-6.613-.871-13.895-1.136-17.251-.628M379.528 183.45c-3.776 7.982-5.62 12.299-8.989 21.044-5.173 13.431-6.53 20.363-6.108 31.199.304 7.787 1.31 12.073 4.061 17.309 1.711 3.257 6.724 8.567 8.087 8.567 1.166 0 5.373-5.135 7.373-9.002 2.414-4.665 4.199-10.25 4.977-15.569.87-5.952.317-20.075-1.188-30.348-1.27-8.662-4.38-26.018-5.023-28.021-.315-.983-.767-.301-3.19 4.821" fill="#E2F163"/><path fill-rule="evenodd" clip-rule="evenodd" d="M588.271.945c-3.401 1.174-4.589 2.52-5.57 6.313-.447 1.725-1.617 5.786-2.601 9.024l-1.788 5.888-2.413.255c-1.327.14-6.756.596-12.064 1.01-18.421 1.442-34.276 3.108-36.854 3.874-8.981 2.67-4.628 8.903 6.219 8.903 2.031 0 10.732-.643 19.335-1.427 25.234-2.302 22.774-2.176 22.47-1.152-.943 3.17-2.369 9.592-3.467 15.608-2.081 11.405-7.981 24.14-18.107 39.088-6.068 8.955-10.992 14.1-15.935 16.648-2.199 1.134-2.218 1.135-3.619.217-2.652-1.738-6.383-5.845-7.905-8.7-3.261-6.117-5.038-18.153-4.007-27.132.522-4.55.174-5.442-2.755-7.057-1.781-.983-2.979-1.212-7.262-1.388-8.491-.35-12.096 1.304-13.467 6.179-1.226 4.358-5.438 14.345-7.836 18.579-5.017 8.856-13.359 18.404-18.925 21.659-2.254 1.319-2.425 1.347-3.906.64-.853-.406-2.852-1.944-4.442-3.416-6.628-6.136-9.597-16.174-10.154-34.322l-.281-9.165-1.426-1.333c-2.253-2.104-5.928-2.93-11.899-2.675-5.801.248-8.309 1.189-10.339 3.876-.652.865-3.136 5.156-5.518 9.535-2.383 4.38-6.328 11.328-8.768 15.442-4.517 7.614-21.351 33.363-21.63 33.084-.084-.084-.876-3.165-1.759-6.847-2.426-10.107-5.156-20.29-9.235-34.44-2.026-7.034-3.798-14.097-3.937-15.697l-.252-2.907 3.46-.594c5.43-.93 9.201-3.405 9.201-6.036 0-1.83-3.542-4.543-7.598-5.82-14.191-4.471-44.149-4.86-63.497-.826-14.707 3.067-26.216 7.962-33.958 14.442-1.805 1.511-6.706 4.694-10.89 7.073-4.183 2.38-10.915 6.684-14.959 9.566-10.376 7.395-26.994 18.394-30.051 19.89l-.237.115a4.46 4.46 0 0 1-4.49-.332c-3.292-2.264-7.249-6.902-11.782-13.808l-6.334-9.651c-4.617-7.041-12.319-13.867-18.951-16.795-13.038-5.758-32.284-5.89-53.519-.37-24.218 6.296-50.55 18.988-89.974 43.37-14.68 9.078-13.733 8.647-19.543 8.892-5.792.244-8.635 1.318-9.883 3.73-1.039 2.009-.917 3.083.513 4.512 2.242 2.242 5.472 2.991 12.747 2.954 5.968-.029 6.9-.16 11.1-1.552 5.804-1.925 10.689-4.442 20.991-10.819 20.296-12.564 37.128-22.147 50.187-28.573 22.613-11.129 46.002-17.89 56.203-16.246 7.686 1.237 12.428 5.538 21.858 19.824 9.731 14.743 13.323 18.585 20.938 22.394 7.689 3.846 19.038 4.845 28.316 2.491 6.577-1.668 11.356-4.185 24.357-12.829 6.289-4.18 11.503-7.54 11.587-7.464s.455 1.578.823 3.337c.932 4.458 2.796 7.6 6.593 11.116 7.219 6.683 18.247 9.866 32.209 9.296 17.4-.71 32.921-7.033 44.559-18.148 2.061-1.97 3.821-3.494 3.911-3.388.969 1.148 13.592 54.195 13.902 58.425.049.679-1.44 3.504-3.774 7.155-10.974 17.166-15.823 26.544-23.176 44.825-6.23 15.489-7.944 22.912-7.929 34.337.025 18.081 7.093 30.398 20.587 35.882 6.529 2.652 16.245 3.455 23.756 1.962 4.523-.899 10.697-3.822 13.75-6.509 3.083-2.713 7.632-9.665 9.506-14.523 6.795-17.62 5.471-35.318-6.893-92.113l-2.049-9.41 3.929-6.515a2044 2044 0 0 0 7.918-13.271c2.193-3.715 7.725-12.402 12.292-19.302s8.577-13.063 8.911-13.693c.591-1.112.642-1.064 1.735 1.624 4.87 11.983 17.801 20.698 31.7 21.366 13.608.653 25.756-4.475 35.262-14.885l2.991-3.275 2.172 2.723c4.275 5.36 10.775 9.557 17.855 11.527 4.739 1.318 16.7 1.191 21.956-.233 7.951-2.155 15.237-6.692 21.144-13.164 1.763-1.931 3.28-3.416 3.371-3.3s.728 1.188 1.415 2.382c2.663 4.628 7.309 8.288 13.341 10.512 3.749 1.381 12.146 1.974 16.465 1.163 6.76-1.27 10.654-3.553 17.704-10.381l4.916-4.761.542 2.095c.919 3.553 1.061 3.967 2.051 5.957 4.644 9.33 15.367 14.735 29.176 14.707 13.111-.026 24.749-5.548 35.497-16.843l4.135-4.346.329 2.035c.747 4.618 3.802 8.958 8.353 11.867 7.053 4.509 20.336 5.972 33.383 3.678 12.48-2.194 18.991-5.571 24.833-12.881 2.855-3.572 6.271-9.975 6.821-12.783.687-3.51-4.383-5.687-12.537-5.383-3.991.15-5.324.401-7.295 1.38-2.258 1.12-2.51 1.438-3.992 5.012-1.857 4.477-4.998 9.059-8.054 11.75-2.317 2.039-5.466 3.168-10.488 3.759-2.367.279-2.954.177-4.233-.734-1.706-1.214-3.105-3.737-3.622-6.526-.196-1.062-.529-5.73-.739-10.376-.451-9.93-1.075-12.238-4.105-15.172-2.465-2.389-5.637-3.63-10.201-3.99l-3.448-.272 1.639-1.64c4.627-4.626-.236-9.993-11.835-13.06-6.332-1.675-18.171-2.068-25.879-.859-9.207 1.444-18.467 4.78-24.431 8.799-1.147.773-3.172 1.804-4.499 2.29-3.974 1.456-9.467 4.36-12.546 6.633-2.791 2.06-9.515 8.945-21.075 21.578-3.018 3.297-5.741 6.08-6.052 6.183-.914.305-3.43-4.644-4.352-8.56-1.157-4.915-1.037-16.976.268-26.832.775-5.853 1.434-8.657 3.348-14.235 1.311-3.821 3.103-9.662 3.982-12.98s1.726-6.172 1.882-6.345c.276-.305 26.981-1.85 48.781-2.823 47.068-2.1 47.809-2.155 51.118-3.843 2.353-1.201 3.032-2.087 2.843-3.713-.201-1.736-2.51-3.3-6.042-4.09-2.138-.478-5.08-.482-14.326-.02-6.4.319-19.454.91-29.009 1.315s-24.858 1.15-34.006 1.656c-9.149.507-16.731.826-16.848.708-.118-.118.389-3.577 1.126-7.687s1.209-7.993 1.049-8.628C605.475.66 594.693-1.273 588.271.945M335.582 57.978c-8.003 1.15-21.592 5.195-28.921 8.607-3.555 1.655-4.036 2.051-5.534 4.561-5.753 9.64-4.747 21.483 2.256 26.567 4.36 3.166 8.974 3.425 16.527.929 10.011-3.309 19.743-11.404 27.481-22.86 5.044-7.466 7.49-13.14 7.019-16.28l-.309-2.057-7.812.059c-4.296.032-9.115.246-10.707.474m321.991 13.806c-.896.137-2.043 1.082-3.536 2.914-4.351 5.342-6.031 10.227-6.013 17.491.02 8.355 2.423 13.988 7.278 17.059 1.161.735 1.359.709 3.62-.476 7.968-4.178 15.436-12.17 23.985-25.664 2.132-3.366 4.65-6.934 5.595-7.93l1.719-1.809-4.079-.002c-2.243 0-7.336-.43-11.318-.955-6.613-.871-13.895-1.136-17.251-.628M379.528 183.45c-3.776 7.982-5.62 12.299-8.989 21.044-5.173 13.431-6.53 20.363-6.108 31.199.304 7.787 1.31 12.073 4.061 17.309 1.711 3.257 6.724 8.567 8.087 8.567 1.166 0 5.373-5.135 7.373-9.002 2.414-4.665 4.199-10.25 4.977-15.569.87-5.952.317-20.075-1.188-30.348-1.27-8.662-4.38-26.018-5.023-28.021-.315-.983-.767-.301-3.19 4.821" fill="#000" fill-opacity=".5"/><path fill-rule="evenodd" clip-rule="evenodd" d="M588.271.945c-3.401 1.174-4.589 2.52-5.57 6.313-.447 1.725-1.617 5.786-2.601 9.024l-1.788 5.888-2.413.255c-1.327.14-6.756.596-12.064 1.01-18.421 1.442-34.276 3.108-36.854 3.874-8.981 2.67-4.628 8.903 6.219 8.903 2.031 0 10.732-.643 19.335-1.427 25.234-2.302 22.774-2.176 22.47-1.152-.943 3.17-2.369 9.592-3.467 15.608-2.081 11.405-7.981 24.14-18.107 39.088-6.068 8.955-10.992 14.1-15.935 16.648-2.199 1.134-2.218 1.135-3.619.217-2.652-1.738-6.383-5.845-7.905-8.7-3.261-6.117-5.038-18.153-4.007-27.132.522-4.55.174-5.442-2.755-7.057-1.781-.983-2.979-1.212-7.262-1.388-8.491-.35-12.096 1.304-13.467 6.179-1.226 4.358-5.438 14.345-7.836 18.579-5.017 8.856-13.359 18.404-18.925 21.659-2.254 1.319-2.425 1.347-3.906.64-.853-.406-2.852-1.944-4.442-3.416-6.628-6.136-9.597-16.174-10.154-34.322l-.281-9.165-1.426-1.333c-2.253-2.104-5.928-2.93-11.899-2.675-5.801.248-8.309 1.189-10.339 3.876-.652.865-3.136 5.156-5.518 9.535-2.383 4.38-6.328 11.328-8.768 15.442-4.517 7.614-21.351 33.363-21.63 33.084-.084-.084-.876-3.165-1.759-6.847-2.426-10.107-5.156-20.29-9.235-34.44-2.026-7.034-3.798-14.097-3.937-15.697l-.252-2.907 3.46-.594c5.43-.93 9.201-3.405 9.201-6.036 0-1.83-3.542-4.543-7.598-5.82-14.191-4.471-44.149-4.86-63.497-.826-14.707 3.067-26.216 7.962-33.958 14.442-1.805 1.511-6.706 4.694-10.89 7.073-4.183 2.38-10.915 6.684-14.959 9.566-10.376 7.395-26.994 18.394-30.051 19.89l-.237.115a4.46 4.46 0 0 1-4.49-.332c-3.292-2.264-7.249-6.902-11.782-13.808l-6.334-9.651c-4.617-7.041-12.319-13.867-18.951-16.795-13.038-5.758-32.284-5.89-53.519-.37-24.218 6.296-50.55 18.988-89.974 43.37-14.68 9.078-13.733 8.647-19.543 8.892-5.792.244-8.635 1.318-9.883 3.73-1.039 2.009-.917 3.083.513 4.512 2.242 2.242 5.472 2.991 12.747 2.954 5.968-.029 6.9-.16 11.1-1.552 5.804-1.925 10.689-4.442 20.991-10.819 20.296-12.564 37.128-22.147 50.187-28.573 22.613-11.129 46.002-17.89 56.203-16.246 7.686 1.237 12.428 5.538 21.858 19.824 9.731 14.743 13.323 18.585 20.938 22.394 7.689 3.846 19.038 4.845 28.316 2.491 6.577-1.668 11.356-4.185 24.357-12.829 6.289-4.18 11.503-7.54 11.587-7.464s.455 1.578.823 3.337c.932 4.458 2.796 7.6 6.593 11.116 7.219 6.683 18.247 9.866 32.209 9.296 17.4-.71 32.921-7.033 44.559-18.148 2.061-1.97 3.821-3.494 3.911-3.388.969 1.148 13.592 54.195 13.902 58.425.049.679-1.44 3.504-3.774 7.155-10.974 17.166-15.823 26.544-23.176 44.825-6.23 15.489-7.944 22.912-7.929 34.337.025 18.081 7.093 30.398 20.587 35.882 6.529 2.652 16.245 3.455 23.756 1.962 4.523-.899 10.697-3.822 13.75-6.509 3.083-2.713 7.632-9.665 9.506-14.523 6.795-17.62 5.471-35.318-6.893-92.113l-2.049-9.41 3.929-6.515a2044 2044 0 0 0 7.918-13.271c2.193-3.715 7.725-12.402 12.292-19.302s8.577-13.063 8.911-13.693c.591-1.112.642-1.064 1.735 1.624 4.87 11.983 17.801 20.698 31.7 21.366 13.608.653 25.756-4.475 35.262-14.885l2.991-3.275 2.172 2.723c4.275 5.36 10.775 9.557 17.855 11.527 4.739 1.318 16.7 1.191 21.956-.233 7.951-2.155 15.237-6.692 21.144-13.164 1.763-1.931 3.28-3.416 3.371-3.3s.728 1.188 1.415 2.382c2.663 4.628 7.309 8.288 13.341 10.512 3.749 1.381 12.146 1.974 16.465 1.163 6.76-1.27 10.654-3.553 17.704-10.381l4.916-4.761.542 2.095c.919 3.553 1.061 3.967 2.051 5.957 4.644 9.33 15.367 14.735 29.176 14.707 13.111-.026 24.749-5.548 35.497-16.843l4.135-4.346.329 2.035c.747 4.618 3.802 8.958 8.353 11.867 7.053 4.509 20.336 5.972 33.383 3.678 12.48-2.194 18.991-5.571 24.833-12.881 2.855-3.572 6.271-9.975 6.821-12.783.687-3.51-4.383-5.687-12.537-5.383-3.991.15-5.324.401-7.295 1.38-2.258 1.12-2.51 1.438-3.992 5.012-1.857 4.477-4.998 9.059-8.054 11.75-2.317 2.039-5.466 3.168-10.488 3.759-2.367.279-2.954.177-4.233-.734-1.706-1.214-3.105-3.737-3.622-6.526-.196-1.062-.529-5.73-.739-10.376-.451-9.93-1.075-12.238-4.105-15.172-2.465-2.389-5.637-3.63-10.201-3.99l-3.448-.272 1.639-1.64c4.627-4.626-.236-9.993-11.835-13.06-6.332-1.675-18.171-2.068-25.879-.859-9.207 1.444-18.467 4.78-24.431 8.799-1.147.773-3.172 1.804-4.499 2.29-3.974 1.456-9.467 4.36-12.546 6.633-2.791 2.06-9.515 8.945-21.075 21.578-3.018 3.297-5.741 6.08-6.052 6.183-.914.305-3.43-4.644-4.352-8.56-1.157-4.915-1.037-16.976.268-26.832.775-5.853 1.434-8.657 3.348-14.235 1.311-3.821 3.103-9.662 3.982-12.98s1.726-6.172 1.882-6.345c.276-.305 26.981-1.85 48.781-2.823 47.068-2.1 47.809-2.155 51.118-3.843 2.353-1.201 3.032-2.087 2.843-3.713-.201-1.736-2.51-3.3-6.042-4.09-2.138-.478-5.08-.482-14.326-.02-6.4.319-19.454.91-29.009 1.315s-24.858 1.15-34.006 1.656c-9.149.507-16.731.826-16.848.708-.118-.118.389-3.577 1.126-7.687s1.209-7.993 1.049-8.628C605.475.66 594.693-1.273 588.271.945M335.582 57.978c-8.003 1.15-21.592 5.195-28.921 8.607-3.555 1.655-4.036 2.051-5.534 4.561-5.753 9.64-4.747 21.483 2.256 26.567 4.36 3.166 8.974 3.425 16.527.929 10.011-3.309 19.743-11.404 27.481-22.86 5.044-7.466 7.49-13.14 7.019-16.28l-.309-2.057-7.812.059c-4.296.032-9.115.246-10.707.474m321.991 13.806c-.896.137-2.043 1.082-3.536 2.914-4.351 5.342-6.031 10.227-6.013 17.491.02 8.355 2.423 13.988 7.278 17.059 1.161.735 1.359.709 3.62-.476 7.968-4.178 15.436-12.17 23.985-25.664 2.132-3.366 4.65-6.934 5.595-7.93l1.719-1.809-4.079-.002c-2.243 0-7.336-.43-11.318-.955-6.613-.871-13.895-1.136-17.251-.628M379.528 183.45c-3.776 7.982-5.62 12.299-8.989 21.044-5.173 13.431-6.53 20.363-6.108 31.199.304 7.787 1.31 12.073 4.061 17.309 1.711 3.257 6.724 8.567 8.087 8.567 1.166 0 5.373-5.135 7.373-9.002 2.414-4.665 4.199-10.25 4.977-15.569.87-5.952.317-20.075-1.188-30.348-1.27-8.662-4.38-26.018-5.023-28.021-.315-.983-.767-.301-3.19 4.821" fill="#E2F163"/><path fill-rule="evenodd" clip-rule="evenodd" d="M588.271.945c-3.401 1.174-4.589 2.52-5.57 6.313-.447 1.725-1.617 5.786-2.601 9.024l-1.788 5.888-2.413.255c-1.327.14-6.756.596-12.064 1.01-18.421 1.442-34.276 3.108-36.854 3.874-8.981 2.67-4.628 8.903 6.219 8.903 2.031 0 10.732-.643 19.335-1.427 25.234-2.302 22.774-2.176 22.47-1.152-.943 3.17-2.369 9.592-3.467 15.608-2.081 11.405-7.981 24.14-18.107 39.088-6.068 8.955-10.992 14.1-15.935 16.648-2.199 1.134-2.218 1.135-3.619.217-2.652-1.738-6.383-5.845-7.905-8.7-3.261-6.117-5.038-18.153-4.007-27.132.522-4.55.174-5.442-2.755-7.057-1.781-.983-2.979-1.212-7.262-1.388-8.491-.35-12.096 1.304-13.467 6.179-1.226 4.358-5.438 14.345-7.836 18.579-5.017 8.856-13.359 18.404-18.925 21.659-2.254 1.319-2.425 1.347-3.906.64-.853-.406-2.852-1.944-4.442-3.416-6.628-6.136-9.597-16.174-10.154-34.322l-.281-9.165-1.426-1.333c-2.253-2.104-5.928-2.93-11.899-2.675-5.801.248-8.309 1.189-10.339 3.876-.652.865-3.136 5.156-5.518 9.535-2.383 4.38-6.328 11.328-8.768 15.442-4.517 7.614-21.351 33.363-21.63 33.084-.084-.084-.876-3.165-1.759-6.847-2.426-10.107-5.156-20.29-9.235-34.44-2.026-7.034-3.798-14.097-3.937-15.697l-.252-2.907 3.46-.594c5.43-.93 9.201-3.405 9.201-6.036 0-1.83-3.542-4.543-7.598-5.82-14.191-4.471-44.149-4.86-63.497-.826-14.707 3.067-26.216 7.962-33.958 14.442-1.805 1.511-6.706 4.694-10.89 7.073-4.183 2.38-10.915 6.684-14.959 9.566-10.376 7.395-26.994 18.394-30.051 19.89l-.237.115a4.46 4.46 0 0 1-4.49-.332c-3.292-2.264-7.249-6.902-11.782-13.808l-6.334-9.651c-4.617-7.041-12.319-13.867-18.951-16.795-13.038-5.758-32.284-5.89-53.519-.37-24.218 6.296-50.55 18.988-89.974 43.37-14.68 9.078-13.733 8.647-19.543 8.892-5.792.244-8.635 1.318-9.883 3.73-1.039 2.009-.917 3.083.513 4.512 2.242 2.242 5.472 2.991 12.747 2.954 5.968-.029 6.9-.16 11.1-1.552 5.804-1.925 10.689-4.442 20.991-10.819 20.296-12.564 37.128-22.147 50.187-28.573 22.613-11.129 46.002-17.89 56.203-16.246 7.686 1.237 12.428 5.538 21.858 19.824 9.731 14.743 13.323 18.585 20.938 22.394 7.689 3.846 19.038 4.845 28.316 2.491 6.577-1.668 11.356-4.185 24.357-12.829 6.289-4.18 11.503-7.54 11.587-7.464s.455 1.578.823 3.337c.932 4.458 2.796 7.6 6.593 11.116 7.219 6.683 18.247 9.866 32.209 9.296 17.4-.71 32.921-7.033 44.559-18.148 2.061-1.97 3.821-3.494 3.911-3.388.969 1.148 13.592 54.195 13.902 58.425.049.679-1.44 3.504-3.774 7.155-10.974 17.166-15.823 26.544-23.176 44.825-6.23 15.489-7.944 22.912-7.929 34.337.025 18.081 7.093 30.398 20.587 35.882 6.529 2.652 16.245 3.455 23.756 1.962 4.523-.899 10.697-3.822 13.75-6.509 3.083-2.713 7.632-9.665 9.506-14.523 6.795-17.62 5.471-35.318-6.893-92.113l-2.049-9.41 3.929-6.515a2044 2044 0 0 0 7.918-13.271c2.193-3.715 7.725-12.402 12.292-19.302s8.577-13.063 8.911-13.693c.591-1.112.642-1.064 1.735 1.624 4.87 11.983 17.801 20.698 31.7 21.366 13.608.653 25.756-4.475 35.262-14.885l2.991-3.275 2.172 2.723c4.275 5.36 10.775 9.557 17.855 11.527 4.739 1.318 16.7 1.191 21.956-.233 7.951-2.155 15.237-6.692 21.144-13.164 1.763-1.931 3.28-3.416 3.371-3.3s.728 1.188 1.415 2.382c2.663 4.628 7.309 8.288 13.341 10.512 3.749 1.381 12.146 1.974 16.465 1.163 6.76-1.27 10.654-3.553 17.704-10.381l4.916-4.761.542 2.095c.919 3.553 1.061 3.967 2.051 5.957 4.644 9.33 15.367 14.735 29.176 14.707 13.111-.026 24.749-5.548 35.497-16.843l4.135-4.346.329 2.035c.747 4.618 3.802 8.958 8.353 11.867 7.053 4.509 20.336 5.972 33.383 3.678 12.48-2.194 18.991-5.571 24.833-12.881 2.855-3.572 6.271-9.975 6.821-12.783.687-3.51-4.383-5.687-12.537-5.383-3.991.15-5.324.401-7.295 1.38-2.258 1.12-2.51 1.438-3.992 5.012-1.857 4.477-4.998 9.059-8.054 11.75-2.317 2.039-5.466 3.168-10.488 3.759-2.367.279-2.954.177-4.233-.734-1.706-1.214-3.105-3.737-3.622-6.526-.196-1.062-.529-5.73-.739-10.376-.451-9.93-1.075-12.238-4.105-15.172-2.465-2.389-5.637-3.63-10.201-3.99l-3.448-.272 1.639-1.64c4.627-4.626-.236-9.993-11.835-13.06-6.332-1.675-18.171-2.068-25.879-.859-9.207 1.444-18.467 4.78-24.431 8.799-1.147.773-3.172 1.804-4.499 2.29-3.974 1.456-9.467 4.36-12.546 6.633-2.791 2.06-9.515 8.945-21.075 21.578-3.018 3.297-5.741 6.08-6.052 6.183-.914.305-3.43-4.644-4.352-8.56-1.157-4.915-1.037-16.976.268-26.832.775-5.853 1.434-8.657 3.348-14.235 1.311-3.821 3.103-9.662 3.982-12.98s1.726-6.172 1.882-6.345c.276-.305 26.981-1.85 48.781-2.823 47.068-2.1 47.809-2.155 51.118-3.843 2.353-1.201 3.032-2.087 2.843-3.713-.201-1.736-2.51-3.3-6.042-4.09-2.138-.478-5.08-.482-14.326-.02-6.4.319-19.454.91-29.009 1.315s-24.858 1.15-34.006 1.656c-9.149.507-16.731.826-16.848.708-.118-.118.389-3.577 1.126-7.687s1.209-7.993 1.049-8.628C605.475.66 594.693-1.273 588.271.945M335.582 57.978c-8.003 1.15-21.592 5.195-28.921 8.607-3.555 1.655-4.036 2.051-5.534 4.561-5.753 9.64-4.747 21.483 2.256 26.567 4.36 3.166 8.974 3.425 16.527.929 10.011-3.309 19.743-11.404 27.481-22.86 5.044-7.466 7.49-13.14 7.019-16.28l-.309-2.057-7.812.059c-4.296.032-9.115.246-10.707.474m321.991 13.806c-.896.137-2.043 1.082-3.536 2.914-4.351 5.342-6.031 10.227-6.013 17.491.02 8.355 2.423 13.988 7.278 17.059 1.161.735 1.359.709 3.62-.476 7.968-4.178 15.436-12.17 23.985-25.664 2.132-3.366 4.65-6.934 5.595-7.93l1.719-1.809-4.079-.002c-2.243 0-7.336-.43-11.318-.955-6.613-.871-13.895-1.136-17.251-.628M379.528 183.45c-3.776 7.982-5.62 12.299-8.989 21.044-5.173 13.431-6.53 20.363-6.108 31.199.304 7.787 1.31 12.073 4.061 17.309 1.711 3.257 6.724 8.567 8.087 8.567 1.166 0 5.373-5.135 7.373-9.002 2.414-4.665 4.199-10.25 4.977-15.569.87-5.952.317-20.075-1.188-30.348-1.27-8.662-4.38-26.018-5.023-28.021-.315-.983-.767-.301-3.19 4.821" fill="#000" fill-opacity=".5"/><path d="M8.082 70.115q.867-.456 1.277-1.01.418-.58.424-1.216.005-.634-.34-1.29-.547-1.045-1.456-1.313-.909-.27-2.22.42l-2.85 1.496 2.314 4.41zm3.133-4.446q.353.674.476 1.467a3.7 3.7 0 0 1-.12 1.577q-.236.801-.9 1.556-.657.729-1.808 1.333L6.012 73.1l2.63 5.011-1.77.93L.365 66.644l4.621-2.426q1.453-.763 2.66-.742 1.218-.006 2.124.603.915.58 1.445 1.59" fill="#EAEAEA"/><path d="M8.082 70.115q.867-.456 1.277-1.01.418-.58.424-1.216.005-.634-.34-1.29-.547-1.045-1.456-1.313-.909-.27-2.22.42l-2.85 1.496 2.314 4.41zm3.133-4.446q.353.674.476 1.467a3.7 3.7 0 0 1-.12 1.577q-.236.801-.9 1.556-.657.729-1.808 1.333L6.012 73.1l2.63 5.011-1.77.93L.365 66.644l4.621-2.426q1.453-.763 2.66-.742 1.218-.006 2.124.603.915.58 1.445 1.59" fill="#000" fill-opacity=".5"/><path d="M27.084 57.777q-.502-1.023-1.411-1.335-.91-.31-2.24.34l-2.873 1.409 2.193 4.472 2.89-1.418q.88-.431 1.305-.973.416-.56.44-1.195.021-.636-.304-1.3m-4.39-2.503q1.49-.73 2.698-.677 1.216.028 2.097.643a4.14 4.14 0 0 1 1.409 1.648q.334.683.427 1.461.092.78-.156 1.591-.256.795-.942 1.531-.677.71-1.844 1.283l-2.891 1.417 2.491 5.082-1.796.88-6.162-12.57zm4.521 6.315 6.257 3.993-2.03.995-6.13-4.055z" fill="#EAEAEA"/><path d="M27.084 57.777q-.502-1.023-1.411-1.335-.91-.31-2.24.34l-2.873 1.409 2.193 4.472 2.89-1.418q.88-.431 1.305-.973.416-.56.44-1.195.021-.636-.304-1.3m-4.39-2.503q1.49-.73 2.698-.677 1.216.028 2.097.643a4.14 4.14 0 0 1 1.409 1.648q.334.683.427 1.461.092.78-.156 1.591-.256.795-.942 1.531-.677.71-1.844 1.283l-2.891 1.417 2.491 5.082-1.796.88-6.162-12.57zm4.521 6.315 6.257 3.993-2.03.995-6.13-4.055z" fill="#000" fill-opacity=".5"/><path d="M48.733 58.534a7.4 7.4 0 0 1-2.742.696 6.9 6.9 0 0 1-2.646-.384 6.9 6.9 0 0 1-2.31-1.42q-1.045-.972-1.709-2.405-.663-1.434-.72-2.84-.056-1.407.412-2.682a6.7 6.7 0 0 1 1.411-2.284 7.4 7.4 0 0 1 2.304-1.64 7.2 7.2 0 0 1 2.705-.679 6.7 6.7 0 0 1 2.655.402q1.275.468 2.31 1.42 1.037.954 1.7 2.387.664 1.435.729 2.859.056 1.407-.412 2.681A6.9 6.9 0 0 1 51 56.911a7.2 7.2 0 0 1-2.267 1.623m-.723-1.56q1.29-.597 2.028-1.667.758-1.078.843-2.462.087-1.385-.61-2.89-.706-1.525-1.81-2.337-1.11-.83-2.423-.95-1.293-.128-2.582.468-1.307.605-2.064 1.683t-.844 2.462q-.076 1.358.63 2.883.696 1.506 1.79 2.344 1.112.83 2.423.95 1.312.12 2.619-.485" fill="#EAEAEA"/><path d="M48.733 58.534a7.4 7.4 0 0 1-2.742.696 6.9 6.9 0 0 1-2.646-.384 6.9 6.9 0 0 1-2.31-1.42q-1.045-.972-1.709-2.405-.663-1.434-.72-2.84-.056-1.407.412-2.682a6.7 6.7 0 0 1 1.411-2.284 7.4 7.4 0 0 1 2.304-1.64 7.2 7.2 0 0 1 2.705-.679 6.7 6.7 0 0 1 2.655.402q1.275.468 2.31 1.42 1.037.954 1.7 2.387.664 1.435.729 2.859.056 1.407-.412 2.681A6.9 6.9 0 0 1 51 56.911a7.2 7.2 0 0 1-2.267 1.623m-.723-1.56q1.29-.597 2.028-1.667.758-1.078.843-2.462.087-1.385-.61-2.89-.706-1.525-1.81-2.337-1.11-.83-2.423-.95-1.293-.128-2.582.468-1.307.605-2.064 1.683t-.844 2.462q-.076 1.358.63 2.883.696 1.506 1.79 2.344 1.112.83 2.423.95 1.312.12 2.619-.485" fill="#000" fill-opacity=".5"/><path d="M63.634 36.317q2.09-.912 3.936-.78a6.1 6.1 0 0 1 3.323 1.212q1.475 1.08 2.347 3.079.863 1.98.645 3.777-.21 1.772-1.395 3.205-1.167 1.425-3.257 2.338l-4.4 1.92-5.599-12.832zm4.927 11.291q2.42-1.056 3.114-2.864.706-1.836-.287-4.108-1.007-2.31-2.84-3.06-1.823-.775-4.242.28l-2.567 1.12 4.256 9.752z" fill="#EAEAEA"/><path d="M63.634 36.317q2.09-.912 3.936-.78a6.1 6.1 0 0 1 3.323 1.212q1.475 1.08 2.347 3.079.863 1.98.645 3.777-.21 1.772-1.395 3.205-1.167 1.425-3.257 2.338l-4.4 1.92-5.599-12.832zm4.927 11.291q2.42-1.056 3.114-2.864.706-1.836-.287-4.108-1.007-2.31-2.84-3.06-1.823-.775-4.242.28l-2.567 1.12 4.256 9.752z" fill="#000" fill-opacity=".5"/><path d="m79.54 29.518 1.852-.753 3.352 8.245q.45 1.11 1.179 1.68.72.549 1.604.6.876.032 1.803-.345.944-.384 1.532-1.011.597-.654.73-1.55.126-.913-.327-2.025l-3.35-8.245 1.852-.753 3.336 8.208q.513 1.26.463 2.36a4.46 4.46 0 0 1-.532 1.985 5.3 5.3 0 0 1-1.287 1.56 6.6 6.6 0 0 1-1.788 1.072 6.6 6.6 0 0 1-2.712.498 4.87 4.87 0 0 1-2.545-.844q-1.149-.807-1.826-2.474z" fill="#EAEAEA"/><path d="m79.54 29.518 1.852-.753 3.352 8.245q.45 1.11 1.179 1.68.72.549 1.604.6.876.032 1.803-.345.944-.384 1.532-1.011.597-.654.73-1.55.126-.913-.327-2.025l-3.35-8.245 1.852-.753 3.336 8.208q.513 1.26.463 2.36a4.46 4.46 0 0 1-.532 1.985 5.3 5.3 0 0 1-1.287 1.56 6.6 6.6 0 0 1-1.788 1.072 6.6 6.6 0 0 1-2.712.498 4.87 4.87 0 0 1-2.545-.844q-1.149-.807-1.826-2.474z" fill="#000" fill-opacity=".5"/><path d="M101.394 28.315q-.534-1.485-.466-2.893a6.6 6.6 0 0 1 .647-2.634 6.8 6.8 0 0 1 1.588-2.144 7.3 7.3 0 0 1 2.421-1.423q1.977-.71 3.851-.343 1.894.36 3.326 1.8l-1.309 1.088q-.77-.722-1.663-1.018a5.1 5.1 0 0 0-1.815-.26 5.8 5.8 0 0 0-1.77.338q-1.337.48-2.204 1.494-.85 1.007-1.058 2.378-.189 1.365.372 2.927.555 1.544 1.57 2.475a4.85 4.85 0 0 0 2.337 1.178q1.315.23 2.651-.251a5.7 5.7 0 0 0 1.611-.899 5.1 5.1 0 0 0 1.256-1.471q.504-.905.609-2.09l1.695-.014q-.13 2.3-1.358 3.846-1.236 1.529-3.269 2.26a7.3 7.3 0 0 1-2.773.444 6.8 6.8 0 0 1-2.59-.641 6.9 6.9 0 0 1-2.176-1.62q-.954-1.059-1.483-2.527" fill="#EAEAEA"/><path d="M101.394 28.315q-.534-1.485-.466-2.893a6.6 6.6 0 0 1 .647-2.634 6.8 6.8 0 0 1 1.588-2.144 7.3 7.3 0 0 1 2.421-1.423q1.977-.71 3.851-.343 1.894.36 3.326 1.8l-1.309 1.088q-.77-.722-1.663-1.018a5.1 5.1 0 0 0-1.815-.26 5.8 5.8 0 0 0-1.77.338q-1.337.48-2.204 1.494-.85 1.007-1.058 2.378-.189 1.365.372 2.927.555 1.544 1.57 2.475a4.85 4.85 0 0 0 2.337 1.178q1.315.23 2.651-.251a5.7 5.7 0 0 0 1.611-.899 5.1 5.1 0 0 0 1.256-1.471q.504-.905.609-2.09l1.695-.014q-.13 2.3-1.358 3.846-1.236 1.529-3.269 2.26a7.3 7.3 0 0 1-2.773.444 6.8 6.8 0 0 1-2.59-.641 6.9 6.9 0 0 1-2.176-1.62q-.954-1.059-1.483-2.527" fill="#000" fill-opacity=".5"/><path d="m122.128 13.799 10.39-2.716.425 1.625-4.218 1.103 3.116 11.92-1.935.505-3.116-11.92-4.238 1.108z" fill="#EAEAEA"/><path d="m122.128 13.799 10.39-2.716.425 1.625-4.218 1.103 3.116 11.92-1.935.505-3.116-11.92-4.238 1.108z" fill="#000" fill-opacity=".5"/><path d="M162.565 8.123q2.279.043 3.903.934 1.643.892 2.513 2.488.89 1.597.849 3.777-.041 2.16-.99 3.702-.93 1.523-2.605 2.331-1.656.809-3.935.766l-4.799-.091.264-13.998zm-.233 12.318q2.639.05 4.025-1.304 1.407-1.374 1.453-3.853.048-2.52-1.305-3.966-1.334-1.465-3.972-1.515l-2.8-.053-.201 10.638z" fill="#EAEAEA"/><path d="M162.565 8.123q2.279.043 3.903.934 1.643.892 2.513 2.488.89 1.597.849 3.777-.041 2.16-.99 3.702-.93 1.523-2.605 2.331-1.656.809-3.935.766l-4.799-.091.264-13.998zm-.233 12.318q2.639.05 4.025-1.304 1.407-1.374 1.453-3.853.048-2.52-1.305-3.966-1.334-1.465-3.972-1.515l-2.8-.053-.201 10.638z" fill="#000" fill-opacity=".5"/><path d="m190.04 14.744-7.049-2.116-1.259 4.195 5.287 1.587-.483 1.61-5.287-1.588-1.317 4.387 7.049 2.116-.483 1.609-8.965-2.691 4.025-13.41 8.965 2.692z" fill="#EAEAEA"/><path d="m190.04 14.744-7.049-2.116-1.259 4.195 5.287 1.587-.483 1.61-5.287-1.588-1.317 4.387 7.049 2.116-.483 1.609-8.965-2.691 4.025-13.41 8.965 2.692z" fill="#000" fill-opacity=".5"/><path d="M196.582 27.143a2.6 2.6 0 0 0-.088 1.142q.097.605.51 1.178.412.574 1.233 1.033 1.222.683 2.11.446.916-.244 1.345-1.012.351-.63.209-1.235-.115-.615-.587-1.245a10 10 0 0 0-1.122-1.314q-.581-.6-1.135-1.207a7 7 0 0 1-.873-1.267 3.1 3.1 0 0 1-.339-1.404q.008-.751.486-1.607.595-1.065 1.531-1.55t2.068-.38q1.16.099 2.364.772 1.013.566 1.65 1.311a4 4 0 0 1 .886 1.572q.265.836.108 1.733l-1.911-.312a1.86 1.86 0 0 0-.036-.96 2.8 2.8 0 0 0-.526-1.026 3.4 3.4 0 0 0-1.018-.844 3.1 3.1 0 0 0-1.287-.444 2.27 2.27 0 0 0-1.162.152q-.52.235-.833.795-.341.61-.188 1.155.154.544.604 1.093.466.56 1.048 1.159.606.636 1.158 1.289t.887 1.366q.351.723.359 1.53.018.787-.49 1.696a4.07 4.07 0 0 1-1.449 1.527q-.903.55-2.101.521-1.182-.018-2.56-.79-1.135-.633-1.848-1.49-.713-.855-.965-1.8a3.65 3.65 0 0 1 .042-1.877z" fill="#EAEAEA"/><path d="M196.582 27.143a2.6 2.6 0 0 0-.088 1.142q.097.605.51 1.178.412.574 1.233 1.033 1.222.683 2.11.446.916-.244 1.345-1.012.351-.63.209-1.235-.115-.615-.587-1.245a10 10 0 0 0-1.122-1.314q-.581-.6-1.135-1.207a7 7 0 0 1-.873-1.267 3.1 3.1 0 0 1-.339-1.404q.008-.751.486-1.607.595-1.065 1.531-1.55t2.068-.38q1.16.099 2.364.772 1.013.566 1.65 1.311a4 4 0 0 1 .886 1.572q.265.836.108 1.733l-1.911-.312a1.86 1.86 0 0 0-.036-.96 2.8 2.8 0 0 0-.526-1.026 3.4 3.4 0 0 0-1.018-.844 3.1 3.1 0 0 0-1.287-.444 2.27 2.27 0 0 0-1.162.152q-.52.235-.833.795-.341.61-.188 1.155.154.544.604 1.093.466.56 1.048 1.159.606.636 1.158 1.289t.887 1.366q.351.723.359 1.53.018.787-.49 1.696a4.07 4.07 0 0 1-1.449 1.527q-.903.55-2.101.521-1.182-.018-2.56-.79-1.135-.633-1.848-1.49-.713-.855-.965-1.8a3.65 3.65 0 0 1 .042-1.877z" fill="#000" fill-opacity=".5"/><path d="m217.366 27.983 1.714 1.03-7.212 12-1.715-1.03z" fill="#EAEAEA"/><path d="m217.366 27.983 1.714 1.03-7.212 12-1.715-1.03z" fill="#000" fill-opacity=".5"/><path d="M236.296 39.978q-.416-1.557-1.418-2.449a5.17 5.17 0 0 0-2.327-1.203 4.97 4.97 0 0 0-2.647.077 4.95 4.95 0 0 0-2.226 1.43q-.916 1.017-1.291 2.614-.37 1.577-.006 2.915a4.85 4.85 0 0 0 1.318 2.261q.974.927 2.357 1.252a5.1 5.1 0 0 0 1.951.088 4.7 4.7 0 0 0 1.747-.617 4.5 4.5 0 0 0 1.38-1.238l.347-1.48-4.284-1.005.375-1.597 6.25 1.467-.745 3.174a6.8 6.8 0 0 1-1.927 1.91 6.9 6.9 0 0 1-2.57 1.06q-1.398.27-2.917-.088a7.4 7.4 0 0 1-2.588-1.141 6.9 6.9 0 0 1-1.847-1.933 6.9 6.9 0 0 1-.944-2.543q-.225-1.409.137-2.947.356-1.519 1.179-2.66a6.8 6.8 0 0 1 1.981-1.878 6.7 6.7 0 0 1 2.519-.93 7.4 7.4 0 0 1 2.825.13q1.305.306 2.392 1.013a6.8 6.8 0 0 1 1.83 1.744q.743 1.037.989 2.348z" fill="#EAEAEA"/><path d="M236.296 39.978q-.416-1.557-1.418-2.449a5.17 5.17 0 0 0-2.327-1.203 4.97 4.97 0 0 0-2.647.077 4.95 4.95 0 0 0-2.226 1.43q-.916 1.017-1.291 2.614-.37 1.577-.006 2.915a4.85 4.85 0 0 0 1.318 2.261q.974.927 2.357 1.252a5.1 5.1 0 0 0 1.951.088 4.7 4.7 0 0 0 1.747-.617 4.5 4.5 0 0 0 1.38-1.238l.347-1.48-4.284-1.005.375-1.597 6.25 1.467-.745 3.174a6.8 6.8 0 0 1-1.927 1.91 6.9 6.9 0 0 1-2.57 1.06q-1.398.27-2.917-.088a7.4 7.4 0 0 1-2.588-1.141 6.9 6.9 0 0 1-1.847-1.933 6.9 6.9 0 0 1-.944-2.543q-.225-1.409.137-2.947.356-1.519 1.179-2.66a6.8 6.8 0 0 1 1.981-1.878 6.7 6.7 0 0 1 2.519-.93 7.4 7.4 0 0 1 2.825.13q1.305.306 2.392 1.013a6.8 6.8 0 0 1 1.83 1.744q.743 1.037.989 2.348z" fill="#000" fill-opacity=".5"/><path d="m255.243 30.02 6.861 12.204-1.779 1-11.396-6.03 5.312 9.45-1.744.98-6.86-12.204 1.778-1 11.377 5.995L253.5 31z" fill="#EAEAEA"/><path d="m255.243 30.02 6.861 12.204-1.779 1-11.396-6.03 5.312 9.45-1.744.98-6.86-12.204 1.778-1 11.377 5.995L253.5 31z" fill="#000" fill-opacity=".5"/><path d="m272.741 20.447-6.099 4.121 2.453 3.63 4.573-3.091.941 1.392-4.574 3.09 2.565 3.795 6.098-4.12.94 1.391-7.755 5.24-7.838-11.599 7.755-5.24z" fill="#EAEAEA"/><path d="m272.741 20.447-6.099 4.121 2.453 3.63 4.573-3.091.941 1.392-4.574 3.09 2.565 3.795 6.098-4.12.94 1.391-7.755 5.24-7.838-11.599 7.755-5.24z" fill="#000" fill-opacity=".5"/><path d="M288.933 11.88q-.674-.92-1.625-1.066-.95-.146-2.144.73l-2.58 1.892 2.945 4.016 2.596-1.905q.79-.579 1.113-1.188.31-.624.222-1.254-.09-.628-.527-1.225m-4.763-1.691q1.339-.982 2.537-1.141 1.202-.187 2.177.263.991.439 1.677 1.374.45.613.678 1.363t.127 1.594q-.113.827-.658 1.673-.54.818-1.589 1.587l-2.597 1.904 3.348 4.564-1.613 1.183-8.28-11.289zm5.563 5.42 6.862 2.829-1.822 1.337-6.75-2.913z" fill="#EAEAEA"/><path d="M288.933 11.88q-.674-.92-1.625-1.066-.95-.146-2.144.73l-2.58 1.892 2.945 4.016 2.596-1.905q.79-.579 1.113-1.188.31-.624.222-1.254-.09-.628-.527-1.225m-4.763-1.691q1.339-.982 2.537-1.141 1.202-.187 2.177.263.991.439 1.677 1.374.45.613.678 1.363t.127 1.594q-.113.827-.658 1.673-.54.818-1.589 1.587l-2.597 1.904 3.348 4.564-1.613 1.183-8.28-11.289zm5.563 5.42 6.862 2.829-1.822 1.337-6.75-2.913z" fill="#000" fill-opacity=".5"/></svg>