<svg xmlns="http://www.w3.org/2000/svg" width="40" height="50" viewBox="0 0 40 50" fill="none">
  <path d="M29.4033 30.5082C28.5315 32.308 26.6713 33.4768 24.2778 33.8551C21.8865 34.233 19.0116 33.8083 16.234 32.4629C13.4564 31.1175 11.3409 29.1249 10.155 27.0143C8.96798 24.9018 8.73191 22.7176 9.60368 20.9178C10.4754 19.118 12.3356 17.9492 14.7291 17.571C17.1204 17.1931 19.9953 17.6178 22.7729 18.9632C25.5505 20.3086 27.666 22.3011 28.852 24.4117C30.039 26.5243 30.275 28.7085 29.4033 30.5082Z" fill="#E2F163"/>
  <path d="M29.4033 30.5082C28.5315 32.308 26.6713 33.4768 24.2778 33.8551C21.8865 34.233 19.0116 33.8083 16.234 32.4629C13.4564 31.1175 11.3409 29.1249 10.155 27.0143C8.96798 24.9018 8.73191 22.7176 9.60368 20.9178C10.4754 19.118 12.3356 17.9492 14.7291 17.571C17.1204 17.1931 19.9953 17.6178 22.7729 18.9632C25.5505 20.3086 27.666 22.3011 28.852 24.4117C30.039 26.5243 30.275 28.7085 29.4033 30.5082Z" stroke="#E2F163"/>
  <path d="M29.4033 30.5082C28.5315 32.308 26.6713 33.4768 24.2778 33.8551C21.8865 34.233 19.0116 33.8083 16.234 32.4629C13.4564 31.1175 11.3409 29.1249 10.155 27.0143C8.96798 24.9018 8.73191 22.7176 9.60368 20.9178C10.4754 19.118 12.3356 17.9492 14.7291 17.571C17.1204 17.1931 19.9953 17.6178 22.7729 18.9632C25.5505 20.3086 27.666 22.3011 28.852 24.4117C30.039 26.5243 30.275 28.7085 29.4033 30.5082Z" stroke="black" stroke-opacity="0.5"/>
  <ellipse cx="16.3537" cy="24.1867" rx="7" ry="6" transform="rotate(25.8444 16.3537 24.1867)" fill="#E2F163"/>
  <ellipse cx="16.3537" cy="24.1867" rx="7" ry="6" transform="rotate(25.8444 16.3537 24.1867)" fill="white" fill-opacity="0.3"/>
  <mask id="path-3-inside-1_286_4260" fill="white">
    <path fill-rule="evenodd" clip-rule="evenodd" d="M28.8129 19.1106L18.9131 14.3154L14.6628 23.0902L14.4604 23.5081L14.5105 23.5324C14.1671 25.116 15.7022 27.2049 18.1959 28.4128C20.6896 29.6207 23.2804 29.5303 24.3101 28.279L24.3602 28.3033L24.5626 27.8855L28.8129 19.1106Z"/>
  </mask>
  <path fill-rule="evenodd" clip-rule="evenodd" d="M28.8129 19.1106L18.9131 14.3154L14.6628 23.0902L14.4604 23.5081L14.5105 23.5324C14.1671 25.116 15.7022 27.2049 18.1959 28.4128C20.6896 29.6207 23.2804 29.5303 24.3101 28.279L24.3602 28.3033L24.5626 27.8855L28.8129 19.1106Z" fill="#E2F163"/>
  <path d="M18.9131 14.3154L19.349 13.4154L18.449 12.9795L18.0131 13.8795L18.9131 14.3154ZM28.8129 19.1106L29.7129 19.5466L30.1488 18.6466L29.2488 18.2107L28.8129 19.1106ZM14.6628 23.0902L15.5628 23.5262L14.6628 23.0902ZM14.4604 23.5081L13.5604 23.0722L13.1245 23.9721L14.0245 24.4081L14.4604 23.5081ZM14.5105 23.5324L15.4878 23.7443L15.6546 22.9754L14.9464 22.6324L14.5105 23.5324ZM24.3101 28.279L24.746 27.379L24.0379 27.0361L23.5379 27.6436L24.3101 28.279ZM24.3602 28.3033L23.9243 29.2033L24.8242 29.6392L25.2602 28.7392L24.3602 28.3033ZM24.5626 27.8855L23.6626 27.4495L24.5626 27.8855ZM18.4772 15.2154L28.377 20.0106L29.2488 18.2107L19.349 13.4154L18.4772 15.2154ZM15.5628 23.5262L19.8131 14.7514L18.0131 13.8795L13.7628 22.6543L15.5628 23.5262ZM15.3604 23.944L15.5628 23.5262L13.7628 22.6543L13.5604 23.0722L15.3604 23.944ZM14.9464 22.6324L14.8963 22.6081L14.0245 24.4081L14.0746 24.4324L14.9464 22.6324ZM18.6318 27.5128C17.5084 26.9687 16.6338 26.2404 16.0896 25.514C15.5306 24.7676 15.4011 24.1439 15.4878 23.7443L13.5332 23.3204C13.2764 24.5045 13.7429 25.7171 14.4889 26.713C15.2499 27.7289 16.3897 28.6491 17.76 29.3128L18.6318 27.5128ZM23.5379 27.6436C23.2781 27.9593 22.7085 28.2444 21.7762 28.2684C20.8689 28.2918 19.7553 28.057 18.6318 27.5128L17.76 29.3128C19.1302 29.9765 20.5588 30.3004 21.8277 30.2678C23.0717 30.2357 24.3123 29.85 25.0822 28.9145L23.5379 27.6436ZM24.7961 27.4033L24.746 27.379L23.8741 29.179L23.9243 29.2033L24.7961 27.4033ZM23.6626 27.4495L23.4602 27.8674L25.2602 28.7392L25.4626 28.3214L23.6626 27.4495ZM27.9129 18.6747L23.6626 27.4495L25.4626 28.3214L29.7129 19.5466L27.9129 18.6747Z" fill="#E2F163" mask="url(#path-3-inside-1_286_4260)"/>
  <path d="M18.9131 14.3154L19.349 13.4154L18.449 12.9795L18.0131 13.8795L18.9131 14.3154ZM28.8129 19.1106L29.7129 19.5466L30.1488 18.6466L29.2488 18.2107L28.8129 19.1106ZM14.6628 23.0902L15.5628 23.5262L14.6628 23.0902ZM14.4604 23.5081L13.5604 23.0722L13.1245 23.9721L14.0245 24.4081L14.4604 23.5081ZM14.5105 23.5324L15.4878 23.7443L15.6546 22.9754L14.9464 22.6324L14.5105 23.5324ZM24.3101 28.279L24.746 27.379L24.0379 27.0361L23.5379 27.6436L24.3101 28.279ZM24.3602 28.3033L23.9243 29.2033L24.8242 29.6392L25.2602 28.7392L24.3602 28.3033ZM24.5626 27.8855L23.6626 27.4495L24.5626 27.8855ZM18.4772 15.2154L28.377 20.0106L29.2488 18.2107L19.349 13.4154L18.4772 15.2154ZM15.5628 23.5262L19.8131 14.7514L18.0131 13.8795L13.7628 22.6543L15.5628 23.5262ZM15.3604 23.944L15.5628 23.5262L13.7628 22.6543L13.5604 23.0722L15.3604 23.944ZM14.9464 22.6324L14.8963 22.6081L14.0245 24.4081L14.0746 24.4324L14.9464 22.6324ZM18.6318 27.5128C17.5084 26.9687 16.6338 26.2404 16.0896 25.514C15.5306 24.7676 15.4011 24.1439 15.4878 23.7443L13.5332 23.3204C13.2764 24.5045 13.7429 25.7171 14.4889 26.713C15.2499 27.7289 16.3897 28.6491 17.76 29.3128L18.6318 27.5128ZM23.5379 27.6436C23.2781 27.9593 22.7085 28.2444 21.7762 28.2684C20.8689 28.2918 19.7553 28.057 18.6318 27.5128L17.76 29.3128C19.1302 29.9765 20.5588 30.3004 21.8277 30.2678C23.0717 30.2357 24.3123 29.85 25.0822 28.9145L23.5379 27.6436ZM24.7961 27.4033L24.746 27.379L23.8741 29.179L23.9243 29.2033L24.7961 27.4033ZM23.6626 27.4495L23.4602 27.8674L25.2602 28.7392L25.4626 28.3214L23.6626 27.4495ZM27.9129 18.6747L23.6626 27.4495L25.4626 28.3214L29.7129 19.5466L27.9129 18.6747Z" fill="black" fill-opacity="0.5" mask="url(#path-3-inside-1_286_4260)"/>
  <rect x="19.377" y="15.6514" width="2" height="7" transform="rotate(25.8444 19.377 15.6514)" fill="#E2F163"/>
  <rect x="19.377" y="15.6514" width="2" height="7" transform="rotate(25.8444 19.377 15.6514)" fill="white" fill-opacity="0.3"/>
  <path d="M34.3602 15.6866C32.7201 19.0726 27.7872 20.2808 23.2088 18.0631C18.6305 15.8455 16.5204 11.2259 18.1605 7.83989C19.8006 4.4539 24.7335 3.24574 29.3118 5.46338C33.8902 7.68103 36.0003 12.3006 34.3602 15.6866Z" fill="#E2F163"/>
  <path d="M34.3602 15.6866C32.7201 19.0726 27.7872 20.2808 23.2088 18.0631C18.6305 15.8455 16.5204 11.2259 18.1605 7.83989C19.8006 4.4539 24.7335 3.24574 29.3118 5.46338C33.8902 7.68103 36.0003 12.3006 34.3602 15.6866Z" stroke="#E2F163"/>
  <path d="M34.3602 15.6866C32.7201 19.0726 27.7872 20.2808 23.2088 18.0631C18.6305 15.8455 16.5204 11.2259 18.1605 7.83989C19.8006 4.4539 24.7335 3.24574 29.3118 5.46338C33.8902 7.68103 36.0003 12.3006 34.3602 15.6866Z" stroke="black" stroke-opacity="0.5"/>
  <ellipse cx="23.5463" cy="9.33701" rx="4" ry="3.5" transform="rotate(25.8444 23.5463 9.33701)" fill="#E2F163"/>
  <ellipse cx="23.5463" cy="9.33701" rx="4" ry="3.5" transform="rotate(25.8444 23.5463 9.33701)" fill="white" fill-opacity="0.3"/>
  <rect x="14.666" y="32.2588" width="2" height="13" transform="rotate(25.8444 14.666 32.2588)" fill="#EAEAEA"/>
  <rect x="14.666" y="32.2588" width="2" height="13" transform="rotate(25.8444 14.666 32.2588)" fill="black" fill-opacity="0.3"/>
</svg>